<svg version="1.1" id="saucy" xmlns="http://www.w3.org/2000/svg" xmlns:xlink="http://www.w3.org/1999/xlink" x="0px" y="0px" width="400px" height="300px" viewBox="0 0 400 300" enable-background="new 0 0 400 300" xml:space="preserve">
	<g>
<g id="downlimbs">
	<path fill="#346F8C" d="M284.142,176.071l-9.433-9.433c-0.416-1.731-1.285-3.373-2.629-4.717s-2.986-2.213-4.717-2.629
		l-4.433-4.433c-1.945-1.945-5.127-1.945-7.071,0c-1.945,1.945-1.945,5.127,0,7.071l1.112,1.112c-2.9,3.912-2.591,9.497,0.95,13.039
		s9.126,3.851,13.039,0.95l6.112,6.112c1.945,1.945,5.127,1.945,7.071,0C286.087,181.198,286.087,178.016,284.142,176.071z"/>
	<path fill="#3E90BA" d="M274.142,186.071l-9.433-9.433c-0.416-1.731-1.285-3.373-2.629-4.717s-2.986-2.213-4.717-2.629
		l-4.433-4.433c-1.945-1.945-5.127-1.945-7.071,0c-1.945,1.945-1.945,5.127,0,7.071l1.112,1.112c-2.9,3.912-2.591,9.497,0.95,13.039
		s9.126,3.851,13.039,0.951l6.112,6.112c1.945,1.945,5.127,1.945,7.071,0v0C276.087,191.198,276.087,188.016,274.142,186.071z"/>
</g>
<g id="uplimbs">
	<path fill="#346F8C" d="M164.142,164.858c1.945,1.945,1.945,5.127,0,7.071l-21.213,21.213c-1.945,1.945-5.127,1.945-7.071,0l0,0
		c-1.945-1.945-1.945-5.127,0-7.071l21.213-21.213C159.016,162.913,162.198,162.913,164.142,164.858L164.142,164.858z"/>
	<path fill="#3E90BA" d="M174.142,174.858c1.945,1.945,1.945,5.127,0,7.071l-21.213,21.213c-1.945,1.945-5.127,1.945-7.071,0l0,0
		c-1.945-1.945-1.945-5.127,0-7.071l21.213-21.213C169.016,172.913,172.198,172.913,174.142,174.858L174.142,174.858z"/>
</g>
<path id="tail" fill="#3E90BA" d="M248.787,115.213c5.834-5.166,17.346-9.779,25.582-10.25l12.475-0.713
	c8.237-0.471,10.203-3.379,4.369-6.463c-5.834-3.084-15.97-1.508-22.524,3.502l-18.591,14.209
	C243.543,120.508,242.953,120.38,248.787,115.213z"/>
<g id="ears">
	<path fill="#3E90BA" d="M128.787,130.213c5.834-2.416,17.084-6.291,25.002-8.61l13.636-3.994c7.917-2.319,9.622-6.739,3.789-9.823
		c-5.834-3.084-15.97-1.508-22.524,3.502l-18.591,14.209C123.543,130.508,122.953,132.63,128.787,130.213z"/>
	<path fill="#346F8C" d="M108.787,120.213c5.834-2.416,17.084-6.291,25.002-8.61l13.636-3.994c7.917-2.319,9.622-6.739,3.789-9.823
		c-5.834-3.084-15.97-1.508-22.524,3.502l-18.591,14.209C103.543,120.508,102.953,122.63,108.787,120.213z"/>
</g>
<path id="body" fill="none" stroke="#3E90BA" stroke-width="60" stroke-linecap="round" stroke-miterlimit="10" d="M270.711,134.711
	c-38.891,38.891-102.53,38.891-141.421,0"/>
<path id="mouth" fill="none" stroke="#FFFFFF" stroke-width="2" stroke-linecap="round" stroke-miterlimit="10" d="M124.967,139.711
	c-4.861,4.861-12.816,4.861-17.678,0"/>
<g id="eyes">
	<path fill="#FFFFFF" d="M110,131.5c0,1.375-1.125,2.5-2.5,2.5s-2.5-1.125-2.5-2.5s1.125-2.5,2.5-2.5S110,130.125,110,131.5z"/>
	<path fill="#FFFFFF" d="M130,131.5c0,1.375-1.125,2.5-2.5,2.5s-2.5-1.125-2.5-2.5s1.125-2.5,2.5-2.5S130,130.125,130,131.5z"/>
</g>
</g>
</svg>
