<?xml version="1.0" encoding="utf-8"?>
<!-- Generator: Adobe Illustrator 17.0.0, SVG Export Plug-In . SVG Version: 6.00 Build 0)  -->
<!DOCTYPE svg PUBLIC "-//W3C//DTD SVG 1.1//EN" "http://www.w3.org/Graphics/SVG/1.1/DTD/svg11.dtd">
<svg version="1.1" id="Layer_1" xmlns="http://www.w3.org/2000/svg" xmlns:xlink="http://www.w3.org/1999/xlink" x="0px" y="0px"
	 width="376px" height="200px" viewBox="0 0 376 200" enable-background="new 0 0 376 200" xml:space="preserve">
<g>
	<path fill="#1AA3AA" d="M273.149,103.211c-1.403-1.403-2.835-2.762-4.288-4.082c-5.116-4.647-10.536-8.773-16.188-12.389
		c-42.994-27.506-99.543-25.187-140.251,6.956c-3.708,2.928-7.289,6.095-10.712,9.518c-1.526,1.526-3,3.083-4.427,4.668
		c-23.391,25.971-33.575,59.615-30.557,92.27h7.473c-3.843-25.14,2.666-51.993,19.564-71.307c3.154-3.604,6.546-6.775,10.107-9.554
		c5.508-4.298,11.435-7.608,17.595-9.931c24.633-9.288,52.923-2.807,72.426,19.485c16.898,19.314,23.407,46.166,19.564,71.307
		h174.178v-27.385C345.728,159.547,306.311,136.372,273.149,103.211z"/>
	<path fill="#0F5957" d="M112.422,93.695L96.6,66.292L61.242,5.052c-2.788-4.833-8.967-6.486-13.8-3.697s-6.486,8.967-3.697,13.8
		l5.051,8.748l12.85,22.257l7.354,12.737c5.556,9.621,2.227,22.043-7.395,27.599c-9.621,5.556-22.043,2.231-27.599-7.395
		L18.854,52.856c-0.727-1.261-1.689-2.291-2.792-3.095c-3.132-2.283-7.435-2.667-11.007-0.602c-4.833,2.792-6.49,8.971-3.697,13.796
		L16.51,89.199c7.435,12.878,21.017,20.083,34.953,20.136c6.894,0.028,13.876-1.665,20.245-5.342s11.327-8.878,14.749-14.862
		l10.102,17.497l0.724,1.253c1.427-1.585,2.902-3.142,4.427-4.668C105.133,99.79,108.714,96.623,112.422,93.695z"/>
	<path fill="#8DE5D3" d="M193.892,128.844c-19.503-22.291-47.793-28.773-72.426-19.485l10.492,18.171
		c2.788,4.833,1.135,11.011-3.697,13.8s-11.011,1.135-13.8-3.697l-10.59-18.343c-3.561,2.779-6.953,5.95-10.107,9.554
		c-16.898,19.314-23.407,46.166-19.564,71.307h139.257C217.299,175.011,210.79,148.158,193.892,128.844z M95.339,186.059
		c-5.556,0-10.102-4.546-10.102-10.102c0-5.556,4.546-10.102,10.102-10.102s10.102,4.546,10.102,10.102
		C105.441,181.513,100.895,186.059,95.339,186.059z M176.157,186.059c-5.556,0-10.102-4.546-10.102-10.102
		c0-5.556,4.546-10.102,10.102-10.102c5.556,0,10.102,4.546,10.102,10.102C186.259,181.513,181.713,186.059,176.157,186.059z"/>
	<path fill="#8DE5D3" d="M128.26,141.331c4.833-2.788,6.486-8.967,3.697-13.8l-10.492-18.171
		c-6.161,2.323-12.088,5.633-17.595,9.931l10.59,18.343C117.249,142.466,123.427,144.119,128.26,141.331z"/>
	<path fill="#0F5957" d="M95.339,165.854c-5.556,0-10.102,4.546-10.102,10.102c0,5.556,4.546,10.102,10.102,10.102
		s10.102-4.546,10.102-10.102C105.441,170.401,100.895,165.854,95.339,165.854z"/>
	<path fill="#0F5957" d="M176.157,165.854c-5.556,0-10.102,4.546-10.102,10.102c0,5.556,4.546,10.102,10.102,10.102
		c5.556,0,10.102-4.546,10.102-10.102C186.259,170.401,181.713,165.854,176.157,165.854z"/>
	<path fill="#0F5957" d="M371.775,67.649c-2.918-2.918-7.173-3.665-10.789-2.267c-1.273,0.493-2.473,1.237-3.499,2.267
		l-21.429,21.429c-7.859,7.859-20.718,7.859-28.573,0c-7.855-7.859-7.859-20.718,0-28.573l10.401-10.401l18.172-18.172l7.144-7.144
		c3.944-3.944,3.944-10.341,0-14.289c-3.944-3.944-10.341-3.944-14.289,0l-50.002,50.002L252.673,86.74l-23.763,23.763
		c-3.944,3.944-3.944,10.341,0,14.289c3.944,3.944,10.341,3.944,14.289,0l25.316-25.316l0.346-0.346l13.942-13.942
		c1.758,6.667,5.201,12.971,10.401,18.172s11.504,8.643,18.172,10.401c13.476,3.556,28.46,0.113,38.974-10.401l21.429-21.429
		C375.719,77.99,375.719,71.593,371.775,67.649z"/>
</g>
</svg>
