<?xml version="1.0" encoding="utf-8"?>
<!-- Generator: Adobe Illustrator 17.0.2, SVG Export Plug-In . SVG Version: 6.00 Build 0)  -->
<!DOCTYPE svg PUBLIC "-//W3C//DTD SVG 1.1//EN" "http://www.w3.org/Graphics/SVG/1.1/DTD/svg11.dtd">
<svg version="1.1" id="Layer_1" xmlns="http://www.w3.org/2000/svg" xmlns:xlink="http://www.w3.org/1999/xlink" x="0px" y="0px"
	 width="80px" height="80px" viewBox="0 0 80 80" enable-background="new 0 0 80 80" xml:space="preserve">
<g>
	<g>
		<path fill="#FFFFFF" d="M39.983,41.465c-10.281,0-17.159,4.338-18.94,11.902l0.017,0.015L39.866,65L60,52.566V31.535
			C56.728,37.858,49.227,41.465,39.983,41.465z M29.192,52.832c-1.202,0-2.178-0.957-2.178-2.131c0-1.175,0.976-2.132,2.178-2.132
			c1.2,0,2.178,0.957,2.178,2.132C31.37,51.875,30.393,52.832,29.192,52.832z M40.08,59.227c-1.199,0-2.177-0.955-2.177-2.132
			c0-1.174,0.978-2.131,2.177-2.131c1.2,0,2.177,0.957,2.177,2.131C42.257,58.271,41.28,59.227,40.08,59.227z M40.097,38.624
			c10.302,0,17.221-4.37,18.98-11.991l0.003-0.016L40.205,15L20,27.432V48.46C24.821,39.905,34.642,38.624,40.097,38.624z
			 M50.969,27.258c1.201,0,2.178,0.955,2.178,2.13s-0.977,2.131-2.178,2.131c-1.2,0-2.178-0.956-2.178-2.131
			S49.769,27.258,50.969,27.258z M40.08,20.862c1.2,0,2.177,0.956,2.177,2.13c0,1.176-0.977,2.132-2.177,2.132
			c-1.199,0-2.177-0.956-2.177-2.132C37.903,21.817,38.881,20.862,40.08,20.862z"/>
	</g>
</g>
</svg>
