<?xml version="1.0" encoding="utf-8"?>
<!-- Generator: Adobe Illustrator 18.1.1, SVG Export Plug-In . SVG Version: 6.00 Build 0)  -->
<svg version="1.1" xmlns="http://www.w3.org/2000/svg" xmlns:xlink="http://www.w3.org/1999/xlink" x="0px" y="0px"
	 viewBox="0 0 40 50" enable-background="new 0 0 40 50" xml:space="preserve">
<g id="Layer_1" display="none">
	<g display="inline" enable-background="new    ">
		<g>
			<defs>
				<rect id="SVGID_1_" x="0" y="-1" width="40" height="52"/>
			</defs>
			<clipPath id="SVGID_2_">
				<use xlink:href="#SVGID_1_"  overflow="visible"/>
			</clipPath>
			<g clip-path="url(#SVGID_2_)">
				<defs>
					<circle id="SVGID_3_" cx="20" cy="25" r="20"/>
				</defs>
				<clipPath id="SVGID_4_">
					<use xlink:href="#SVGID_3_"  overflow="visible"/>
				</clipPath>
				<g clip-path="url(#SVGID_4_)">
					<defs>
						<rect id="SVGID_5_" x="0" y="-1" width="40" height="52"/>
					</defs>
					<clipPath id="SVGID_6_">
						<use xlink:href="#SVGID_5_"  overflow="visible"/>
					</clipPath>
					<g clip-path="url(#SVGID_6_)" enable-background="new    ">
						<g>
							<defs>
								<rect id="SVGID_7_" x="0" y="5" width="40" height="40"/>
							</defs>
							<clipPath id="SVGID_8_">
								<use xlink:href="#SVGID_7_"  overflow="visible"/>
							</clipPath>
							<g clip-path="url(#SVGID_8_)">
								<defs>
									<rect id="SVGID_9_" x="0" y="5" width="40" height="40"/>
								</defs>
								<clipPath id="SVGID_10_">
									<use xlink:href="#SVGID_9_"  overflow="visible"/>
								</clipPath>
								<rect x="-5" y="0" clip-path="url(#SVGID_10_)" fill="#688089" width="50" height="50"/>
							</g>
							<g clip-path="url(#SVGID_8_)">
								<defs>
									<rect id="SVGID_11_" x="20" y="5" width="20" height="40"/>
								</defs>
								<clipPath id="SVGID_12_">
									<use xlink:href="#SVGID_11_"  overflow="visible"/>
								</clipPath>
								<g clip-path="url(#SVGID_12_)">
									<defs>
										<rect id="SVGID_13_" x="0" y="5" width="40" height="40"/>
									</defs>
									<clipPath id="SVGID_14_">
										<use xlink:href="#SVGID_13_"  overflow="visible"/>
									</clipPath>
									<rect x="15" y="0" clip-path="url(#SVGID_14_)" fill="#4FBCE3" width="30" height="50"/>
									<rect x="15" y="0" opacity="0.4" clip-path="url(#SVGID_14_)" fill="#FFFFFF" width="30" height="50"/>
								</g>
							</g>
							<g clip-path="url(#SVGID_8_)">
								<defs>
									<rect id="SVGID_15_" x="0" y="15" width="20" height="20"/>
								</defs>
								<clipPath id="SVGID_16_">
									<use xlink:href="#SVGID_15_"  overflow="visible"/>
								</clipPath>
								<g clip-path="url(#SVGID_16_)">
									<defs>
										<rect id="SVGID_17_" x="0" y="5" width="40" height="40"/>
									</defs>
									<clipPath id="SVGID_18_">
										<use xlink:href="#SVGID_17_"  overflow="visible"/>
									</clipPath>
									<rect x="-5" y="10" clip-path="url(#SVGID_18_)" fill="#FF4424" width="30" height="30"/>
									<rect x="-5" y="10" opacity="0.4" clip-path="url(#SVGID_18_)" fill="#FFFFFF" width="30" height="30"/>
								</g>
							</g>
							<g clip-path="url(#SVGID_8_)">
								<defs>
									<path id="SVGID_19_" d="M20,25h10c5.5,0,10,4.5,10,10c0,5.5-4.5,10-10,10H20V25z"/>
								</defs>
								<clipPath id="SVGID_20_">
									<use xlink:href="#SVGID_19_"  overflow="visible"/>
								</clipPath>
								<g clip-path="url(#SVGID_20_)">
									<defs>
										<rect id="SVGID_21_" x="0" y="5" width="40" height="40"/>
									</defs>
									<clipPath id="SVGID_22_">
										<use xlink:href="#SVGID_21_"  overflow="visible"/>
									</clipPath>
									<rect x="15" y="20" clip-path="url(#SVGID_22_)" fill="#4FBCE3" width="30" height="30"/>
									<rect x="15" y="20" opacity="0.2" clip-path="url(#SVGID_22_)" fill="#FFFFFF" width="30" height="30"/>
								</g>
							</g>
							<g clip-path="url(#SVGID_8_)">
								<defs>
									<path id="SVGID_23_" d="M10,25C4.5,25,0,20.5,0,15V5h30v20H20H10z"/>
								</defs>
								<clipPath id="SVGID_24_">
									<use xlink:href="#SVGID_23_"  overflow="visible"/>
								</clipPath>
								<g clip-path="url(#SVGID_24_)">
									<defs>
										<rect id="SVGID_25_" x="0" y="5" width="40" height="40"/>
									</defs>
									<clipPath id="SVGID_26_">
										<use xlink:href="#SVGID_25_"  overflow="visible"/>
									</clipPath>
									<rect x="-5" y="0" clip-path="url(#SVGID_26_)" fill="#FF4424" width="40" height="30"/>
									<rect x="-5" y="0" opacity="0.2" clip-path="url(#SVGID_26_)" fill="#FFFFFF" width="40" height="30"/>
								</g>
							</g>
							<g clip-path="url(#SVGID_8_)">
								<defs>
									<path id="SVGID_27_" d="M10,15c0-5.5,4.5-10,10-10h10v20H20C14.5,25,10,20.5,10,15z"/>
								</defs>
								<clipPath id="SVGID_28_">
									<use xlink:href="#SVGID_27_"  overflow="visible"/>
								</clipPath>
								<g clip-path="url(#SVGID_28_)">
									<defs>
										<rect id="SVGID_29_" x="0" y="5" width="40" height="40"/>
									</defs>
									<clipPath id="SVGID_30_">
										<use xlink:href="#SVGID_29_"  overflow="visible"/>
									</clipPath>
									<rect x="5" y="0" clip-path="url(#SVGID_30_)" fill="#FF4424" width="30" height="30"/>
								</g>
							</g>
						</g>
					</g>
				</g>
			</g>
			<g clip-path="url(#SVGID_2_)">
				<defs>
					<path id="SVGID_31_" d="M5.1,40c-0.6-0.6-1.5-0.6-2.1,0c-0.6,0.6-0.6,1.5,0,2.1l7.8,7.8c0.6,0.6,1.5,0.6,2.1,0
						c0.6-0.6,0.6-1.5,0-2.1L5.1,40z"/>
				</defs>
				<clipPath id="SVGID_32_">
					<use xlink:href="#SVGID_31_"  overflow="visible"/>
				</clipPath>
				<g clip-path="url(#SVGID_32_)">
					<defs>
						<rect id="SVGID_33_" x="0" y="-1" width="40" height="52"/>
					</defs>
					<clipPath id="SVGID_34_">
						<use xlink:href="#SVGID_33_"  overflow="visible"/>
					</clipPath>
					
						<rect x="1.4" y="33" transform="matrix(0.7071 -0.7071 0.7071 0.7071 -29.506 18.7663)" clip-path="url(#SVGID_34_)" fill="#4FBCE3" width="13" height="24"/>
				</g>
			</g>
			<g clip-path="url(#SVGID_2_)">
				<defs>
					<path id="SVGID_35_" d="M12.1,40c-0.6-0.6-1.5-0.6-2.1,0c-0.6,0.6-0.6,1.5,0,2.1l7.8,7.8c0.6,0.6,1.5,0.6,2.1,0
						c0.6-0.6,0.6-1.5,0-2.1L12.1,40z"/>
				</defs>
				<clipPath id="SVGID_36_">
					<use xlink:href="#SVGID_35_"  overflow="visible"/>
				</clipPath>
				<g clip-path="url(#SVGID_36_)">
					<defs>
						<rect id="SVGID_37_" x="0" y="-1" width="40" height="52"/>
					</defs>
					<clipPath id="SVGID_38_">
						<use xlink:href="#SVGID_37_"  overflow="visible"/>
					</clipPath>
					
						<rect x="8.4" y="33" transform="matrix(0.7071 -0.7071 0.7071 0.7071 -27.4557 23.7161)" clip-path="url(#SVGID_38_)" fill="#4FBCE3" width="13" height="24"/>
				</g>
			</g>
			<g clip-path="url(#SVGID_2_)">
				<defs>
					<path id="SVGID_39_" d="M0,35c0-5.5,4.5-10,10-10h10c5.5,0,10,4.5,10,10c0,5.5-4.5,10-10,10H10C4.5,45,0,40.5,0,35z"/>
				</defs>
				<clipPath id="SVGID_40_">
					<use xlink:href="#SVGID_39_"  overflow="visible"/>
				</clipPath>
				<g clip-path="url(#SVGID_40_)">
					<defs>
						<rect id="SVGID_41_" x="0" y="-1" width="40" height="52"/>
					</defs>
					<clipPath id="SVGID_42_">
						<use xlink:href="#SVGID_41_"  overflow="visible"/>
					</clipPath>
					<rect x="-5" y="20" clip-path="url(#SVGID_42_)" fill="#4FBCE3" width="40" height="30"/>
				</g>
			</g>
			<g clip-path="url(#SVGID_2_)">
				<defs>
					<path id="SVGID_43_" d="M2,35c0-4.4,3.6-8,8-8c4.4,0,8,3.6,8,8c0,4.4-3.6,8-8,8C5.6,43,2,39.4,2,35z"/>
				</defs>
				<clipPath id="SVGID_44_">
					<use xlink:href="#SVGID_43_"  overflow="visible"/>
				</clipPath>
				<g clip-path="url(#SVGID_44_)">
					<defs>
						<rect id="SVGID_45_" x="0" y="-1" width="40" height="52"/>
					</defs>
					<clipPath id="SVGID_46_">
						<use xlink:href="#SVGID_45_"  overflow="visible"/>
					</clipPath>
					<rect x="-3" y="22" clip-path="url(#SVGID_46_)" fill="#50E3C2" width="26" height="26"/>
					<rect x="-3" y="22" clip-path="url(#SVGID_46_)" fill="#FFFFFF" width="26" height="26"/>
				</g>
			</g>
			<g clip-path="url(#SVGID_2_)">
				<defs>
					<path id="SVGID_47_" d="M4,34.5C4,33.7,4.7,33,5.5,33C6.3,33,7,33.7,7,34.5C7,35.3,6.3,36,5.5,36C4.7,36,4,35.3,4,34.5z"/>
				</defs>
				<clipPath id="SVGID_48_">
					<use xlink:href="#SVGID_47_"  overflow="visible"/>
				</clipPath>
				<g clip-path="url(#SVGID_48_)">
					<defs>
						<rect id="SVGID_49_" x="0" y="-1" width="40" height="52"/>
					</defs>
					<clipPath id="SVGID_50_">
						<use xlink:href="#SVGID_49_"  overflow="visible"/>
					</clipPath>
					<rect x="-1" y="28" clip-path="url(#SVGID_50_)" fill="#4FBCE3" width="13" height="13"/>
					<rect x="-1" y="28" opacity="0.3" clip-path="url(#SVGID_50_)" width="13" height="13"/>
				</g>
			</g>
			<g clip-path="url(#SVGID_2_)">
				<defs>
					<path id="SVGID_51_" d="M11,34.5c0-0.8,0.7-1.5,1.5-1.5c0.8,0,1.5,0.7,1.5,1.5c0,0.8-0.7,1.5-1.5,1.5C11.7,36,11,35.3,11,34.5z
						"/>
				</defs>
				<clipPath id="SVGID_52_">
					<use xlink:href="#SVGID_51_"  overflow="visible"/>
				</clipPath>
				<g clip-path="url(#SVGID_52_)">
					<defs>
						<rect id="SVGID_53_" x="0" y="-1" width="40" height="52"/>
					</defs>
					<clipPath id="SVGID_54_">
						<use xlink:href="#SVGID_53_"  overflow="visible"/>
					</clipPath>
					<rect x="6" y="28" clip-path="url(#SVGID_54_)" fill="#4FBCE3" width="13" height="13"/>
					<rect x="6" y="28" opacity="0.3" clip-path="url(#SVGID_54_)" width="13" height="13"/>
				</g>
			</g>
			<g clip-path="url(#SVGID_2_)">
				<defs>
					<path id="SVGID_55_" d="M22.3,0c-0.6-0.6-1.5-0.6-2.1,0c-0.6,0.6-0.6,1.5,0,2.1l7.8,7.8c0.6,0.6,1.5,0.6,2.1,0
						c0.6-0.6,0.6-1.5,0-2.1L22.3,0z"/>
				</defs>
				<clipPath id="SVGID_56_">
					<use xlink:href="#SVGID_55_"  overflow="visible"/>
				</clipPath>
				<g clip-path="url(#SVGID_56_)">
					<defs>
						<rect id="SVGID_57_" x="0" y="-1" width="40" height="52"/>
					</defs>
					<clipPath id="SVGID_58_">
						<use xlink:href="#SVGID_57_"  overflow="visible"/>
					</clipPath>
					<rect x="14.7" y="-5.4" clip-path="url(#SVGID_58_)" fill="#FF4424" width="20.8" height="20.8"/>
				</g>
			</g>
			<g clip-path="url(#SVGID_2_)">
				<defs>
					<path id="SVGID_59_" d="M29.3,0c-0.6-0.6-1.5-0.6-2.1,0c-0.6,0.6-0.6,1.5,0,2.1l7.8,7.8c0.6,0.6,1.5,0.6,2.1,0
						c0.6-0.6,0.6-1.5,0-2.1L29.3,0z"/>
				</defs>
				<clipPath id="SVGID_60_">
					<use xlink:href="#SVGID_59_"  overflow="visible"/>
				</clipPath>
				<g clip-path="url(#SVGID_60_)">
					<defs>
						<rect id="SVGID_61_" x="0" y="-1" width="40" height="52"/>
					</defs>
					<clipPath id="SVGID_62_">
						<use xlink:href="#SVGID_61_"  overflow="visible"/>
					</clipPath>
					<rect x="21.7" y="-5.4" clip-path="url(#SVGID_62_)" fill="#FF4424" width="20.8" height="20.8"/>
				</g>
			</g>
			<g clip-path="url(#SVGID_2_)">
				<defs>
					<path id="SVGID_63_" d="M20,5h10c5.5,0,10,4.5,10,10c0,5.5-4.5,10-10,10H20V5z"/>
				</defs>
				<clipPath id="SVGID_64_">
					<use xlink:href="#SVGID_63_"  overflow="visible"/>
				</clipPath>
				<g clip-path="url(#SVGID_64_)">
					<defs>
						<rect id="SVGID_65_" x="0" y="-1" width="40" height="52"/>
					</defs>
					<clipPath id="SVGID_66_">
						<use xlink:href="#SVGID_65_"  overflow="visible"/>
					</clipPath>
					<rect x="15" y="0" clip-path="url(#SVGID_66_)" fill="#FF4424" width="30" height="30"/>
				</g>
			</g>
			<g clip-path="url(#SVGID_2_)">
				<defs>
					<path id="SVGID_67_" d="M22,15c0-4.4,3.6-8,8-8c4.4,0,8,3.6,8,8c0,4.4-3.6,8-8,8C25.6,23,22,19.4,22,15z"/>
				</defs>
				<clipPath id="SVGID_68_">
					<use xlink:href="#SVGID_67_"  overflow="visible"/>
				</clipPath>
				<g clip-path="url(#SVGID_68_)">
					<defs>
						<rect id="SVGID_69_" x="0" y="-1" width="40" height="52"/>
					</defs>
					<clipPath id="SVGID_70_">
						<use xlink:href="#SVGID_69_"  overflow="visible"/>
					</clipPath>
					<rect x="17" y="2" clip-path="url(#SVGID_70_)" fill="#9013FE" width="26" height="26"/>
					<rect x="17" y="2" clip-path="url(#SVGID_70_)" fill="#FFFFFF" width="26" height="26"/>
				</g>
			</g>
			<g clip-path="url(#SVGID_2_)">
				<defs>
					<path id="SVGID_71_" d="M26,15.5c0-0.8,0.7-1.5,1.5-1.5c0.8,0,1.5,0.7,1.5,1.5c0,0.8-0.7,1.5-1.5,1.5C26.7,17,26,16.3,26,15.5z
						"/>
				</defs>
				<clipPath id="SVGID_72_">
					<use xlink:href="#SVGID_71_"  overflow="visible"/>
				</clipPath>
				<g clip-path="url(#SVGID_72_)">
					<defs>
						<rect id="SVGID_73_" x="0" y="-1" width="40" height="52"/>
					</defs>
					<clipPath id="SVGID_74_">
						<use xlink:href="#SVGID_73_"  overflow="visible"/>
					</clipPath>
					<rect x="21" y="9" clip-path="url(#SVGID_74_)" fill="#FF4424" width="13" height="13"/>
					<rect x="21" y="9" opacity="0.3" clip-path="url(#SVGID_74_)" width="13" height="13"/>
				</g>
			</g>
			<g clip-path="url(#SVGID_2_)">
				<defs>
					<path id="SVGID_75_" d="M33,15.5c0-0.8,0.7-1.5,1.5-1.5c0.8,0,1.5,0.7,1.5,1.5c0,0.8-0.7,1.5-1.5,1.5C33.7,17,33,16.3,33,15.5z
						"/>
				</defs>
				<clipPath id="SVGID_76_">
					<use xlink:href="#SVGID_75_"  overflow="visible"/>
				</clipPath>
				<g clip-path="url(#SVGID_76_)">
					<defs>
						<rect id="SVGID_77_" x="0" y="-1" width="40" height="52"/>
					</defs>
					<clipPath id="SVGID_78_">
						<use xlink:href="#SVGID_77_"  overflow="visible"/>
					</clipPath>
					<rect x="28" y="9" clip-path="url(#SVGID_78_)" fill="#FF4424" width="13" height="13"/>
					<rect x="28" y="9" opacity="0.3" clip-path="url(#SVGID_78_)" width="13" height="13"/>
				</g>
			</g>
		</g>
	</g>
</g>
<g id="Layer_2">
	<path fill="#FFFFFF" d="M10,43L10,43c-4.4,0-8-3.6-8-8v0c0-4.4,3.6-8,8-8h0c4.4,0,8,3.6,8,8v0C18,39.4,14.4,43,10,43z"/>
	<path fill="#FFFFFF" d="M30,23L30,23c-4.4,0-8-3.6-8-8v0c0-4.4,3.6-8,8-8h0c4.4,0,8,3.6,8,8v0C38,19.4,34.4,23,30,23z"/>
	<path fill="#4FBCE3" d="M3.2,133.3l7.7,7.7c0.6,0.6,1.5,0.6,2.1,0c0.6-0.6,0.6-1.5,0-2.1l-2.8-2.8h3.8l4.9,4.9
		c0.6,0.6,1.5,0.6,2.1,0c0.6-0.6,0.6-1.5,0-2.1l-2.8-2.8H20c0.3,0,0.7,0,1-0.1c10.6-0.5,19-9.2,19-19.9v0c0-2.1-0.3-4-0.9-5.9
		c-1.6,3.5-5.1,5.9-9.1,5.9H20H10c-5.5,0-10,4.5-10,10C0,128.9,1.2,131.5,3.2,133.3z M10,118c4.4,0,8,3.6,8,8c0,2.7-1.3,5.1-3.4,6.5
		c-0.4,0.3-0.9,0.6-1.4,0.8c0,0,0,0,0,0c-0.2,0.1-0.5,0.2-0.7,0.3c0,0,0,0,0,0c-0.3,0.1-0.5,0.2-0.8,0.2l0,0
		c-0.5,0.1-1.1,0.2-1.7,0.2c-0.8,0-1.5-0.1-2.2-0.3c-0.4-0.1-0.8-0.3-1.2-0.5c0,0,0,0,0,0c-1.2-0.6-2.2-1.4-3-2.5l0,0
		c-1-1.3-1.6-3-1.6-4.7C2,121.6,5.6,118,10,118z"/>
	<path fill="#FF4424" d="M36.8,98.7l-7.7-7.7c-0.6-0.6-1.5-0.6-2.1,0c-0.6,0.6-0.6,1.5,0,2.1l2.8,2.8h-3.8l-4.9-4.9
		c-0.6-0.6-1.5-0.6-2.1,0c-0.6,0.6-0.6,1.5,0,2.1l2.8,2.8H20c-0.3,0-0.7,0-1,0.1C8.4,96.6,0,105.3,0,116v0c0,2.1,0.3,4,0.9,5.9
		c1.6-3.5,5.1-5.9,9.1-5.9h10h10c5.5,0,10-4.5,10-10C40,103.1,38.8,100.5,36.8,98.7z M30,114c-4.4,0-8-3.6-8-8
		c0-2.7,1.3-5.1,3.4-6.5c0.4-0.3,0.9-0.6,1.4-0.8c0,0,0,0,0,0c0.2-0.1,0.5-0.2,0.7-0.3c0,0,0,0,0,0c0.3-0.1,0.5-0.2,0.8-0.2l0,0
		c0.5-0.1,1.1-0.2,1.7-0.2c0.8,0,1.5,0.1,2.2,0.3c0.4,0.1,0.8,0.3,1.2,0.5c0,0,0,0,0,0c1.2,0.6,2.2,1.4,3,2.5l0,0
		c1,1.3,1.6,3,1.6,4.7C38,110.4,34.4,114,30,114z"/>
	<linearGradient id="SVGID_79_" gradientUnits="userSpaceOnUse" x1="20.0038" y1="110.1016" x2="20.0038" y2="141.3891">
		<stop  offset="0" style="stop-color:#FFFFFF"/>
		<stop  offset="1" style="stop-color:#000000"/>
	</linearGradient>
	<path opacity="0.5" fill="url(#SVGID_79_)" d="M3.2,133.3l7.7,7.7c0.6,0.6,1.5,0.6,2.1,0c0.6-0.6,0.6-1.5,0-2.1l-2.8-2.8h3.8
		l4.9,4.9c0.6,0.6,1.5,0.6,2.1,0c0.6-0.6,0.6-1.5,0-2.1l-2.8-2.8H20c0.3,0,0.7,0,1-0.1c10.6-0.5,19-9.2,19-19.9v0
		c0-2.1-0.3-4-0.9-5.9c-1.6,3.5-5.1,5.9-9.1,5.9H20H10c-5.5,0-10,4.5-10,10C0,128.9,1.2,131.5,3.2,133.3z M10,118c4.4,0,8,3.6,8,8
		c0,2.7-1.3,5.1-3.4,6.5c-0.4,0.3-0.9,0.6-1.4,0.8c0,0,0,0,0,0c-0.2,0.1-0.5,0.2-0.7,0.3c0,0,0,0,0,0c-0.3,0.1-0.5,0.2-0.8,0.2l0,0
		c-0.5,0.1-1.1,0.2-1.7,0.2c-0.8,0-1.5-0.1-2.2-0.3c-0.4-0.1-0.8-0.3-1.2-0.5c0,0,0,0,0,0c-1.2-0.6-2.2-1.4-3-2.5l0,0
		c-1-1.3-1.6-3-1.6-4.7C2,121.6,5.6,118,10,118z"/>
	<linearGradient id="SVGID_80_" gradientUnits="userSpaceOnUse" x1="20.0038" y1="90.6109" x2="20.0038" y2="121.8984">
		<stop  offset="0" style="stop-color:#FFFFFF"/>
		<stop  offset="1" style="stop-color:#000000"/>
	</linearGradient>
	<path opacity="0.5" fill="url(#SVGID_80_)" d="M36.8,98.7l-7.7-7.7c-0.6-0.6-1.5-0.6-2.1,0c-0.6,0.6-0.6,1.5,0,2.1l2.8,2.8h-3.8
		l-4.9-4.9c-0.6-0.6-1.5-0.6-2.1,0c-0.6,0.6-0.6,1.5,0,2.1l2.8,2.8H20c-0.3,0-0.7,0-1,0.1C8.4,96.6,0,105.3,0,116v0
		c0,2.1,0.3,4,0.9,5.9c1.6-3.5,5.1-5.9,9.1-5.9h10h10c5.5,0,10-4.5,10-10C40,103.1,38.8,100.5,36.8,98.7z M30,114c-4.4,0-8-3.6-8-8
		c0-2.7,1.3-5.1,3.4-6.5c0.4-0.3,0.9-0.6,1.4-0.8c0,0,0,0,0,0c0.2-0.1,0.5-0.2,0.7-0.3c0,0,0,0,0,0c0.3-0.1,0.5-0.2,0.8-0.2l0,0
		c0.5-0.1,1.1-0.2,1.7-0.2c0.8,0,1.5,0.1,2.2,0.3c0.4,0.1,0.8,0.3,1.2,0.5c0,0,0,0,0,0c1.2,0.6,2.2,1.4,3,2.5l0,0
		c1,1.3,1.6,3,1.6,4.7C38,110.4,34.4,114,30,114z"/>
	<g>
		<defs>
			<path id="SVGID_81_" d="M100,44L100,44c-11,0-20-9-20-20v0c0-11,9-20,20-20h0c11,0,20,9,20,20v0C120,35,111,44,100,44z"/>
		</defs>
		<clipPath id="SVGID_82_">
			<use xlink:href="#SVGID_81_"  overflow="visible"/>
		</clipPath>
		<g clip-path="url(#SVGID_82_)">
			<rect x="100" y="14" fill="#95D7EE" width="20" height="20"/>
			<rect x="80" y="14" fill="#FF8F7C" width="20" height="20"/>
			<path opacity="0.2" fill="#FFFFFF" d="M100,24H90c-5.5,0-10-4.5-10-10v0c0-5.5,4.5-10,10-10h10c5.5,0,10,4.5,10,10v0
				C110,19.5,105.5,24,100,24z"/>
			<path fill="#72C9E9" d="M110,44h-10c-5.5,0-10-4.5-10-10v0c0-5.5,4.5-10,10-10h10c5.5,0,10,4.5,10,10v0C120,39.5,115.5,44,110,44
				z"/>
		</g>
	</g>
	<path fill="#FF4424" d="M110,24h-10c-5.5,0-10-4.5-10-10v0c0-5.5,4.5-10,10-10h10c5.5,0,10,4.5,10,10v0C120,19.5,115.5,24,110,24z"
		/>
	<path fill="#FF4489" d="M-80,24h-10c-5.5,0-10-4.5-10-10v0c0-5.5,4.5-10,10-10h10c5.5,0,10,4.5,10,10v0C-70,19.5-74.5,24-80,24z"/>
	<path fill="#4FBCE3" d="M100,44H90c-5.5,0-10-4.5-10-10v0c0-5.5,4.5-10,10-10h10c5.5,0,10,4.5,10,10v0C110,39.5,105.5,44,100,44z"
		/>
	<path fill="#0071BC" d="M-3.5,100L-3.5,100c-0.8,0-1.5-0.7-1.5-1.5v-11c0-0.8,0.7-1.5,1.5-1.5h0c0.8,0,1.5,0.7,1.5,1.5v11
		C-2,99.3-2.7,100-3.5,100z"/>
	<path opacity="0.7" fill="#0071BC" d="M10-74h10c0.3,0,0.7,0,1-0.1c10.6-0.5,19-9.2,19-19.9v0c0-2.1-0.3-4-0.9-5.9
		C37.6-96.4,34.1-94,30-94H20H10C4.5-94,0-89.5,0-84C0-78.5,4.5-74,10-74z"/>
	<path fill="#0071BC" d="M3.1-78.9L3.1-78.9c0.6-0.6,1.5-0.6,2.1,0l7.8,7.8c0.6,0.6,0.6,1.5,0,2.1h0c-0.6,0.6-1.5,0.6-2.1,0
		l-7.8-7.8C2.5-77.4,2.5-78.4,3.1-78.9z"/>
	<path fill="#0071BC" d="M11.1-78.9L11.1-78.9c0.6-0.6,1.5-0.6,2.1,0l7.8,7.8c0.6,0.6,0.6,1.5,0,2.1h0c-0.6,0.6-1.5,0.6-2.1,0
		l-7.8-7.8C10.5-77.4,10.5-78.4,11.1-78.9z"/>
	<rect x="140" y="-15" fill="#D4FF8B" width="80" height="80"/>
	<path fill="#0071BC" d="M156.5,10L156.5,10c-0.8,0-1.5-0.7-1.5-1.5v-11c0-0.8,0.7-1.5,1.5-1.5l0,0c0.8,0,1.5,0.7,1.5,1.5v11
		C158,9.3,157.3,10,156.5,10z"/>
	<path opacity="0.7" fill="#0071BC" d="M190,6h-10c-0.3,0-0.7,0-1,0.1c-10.6,0.5-19,9.2-19,19.9v0c0,2.1,0.3,4,0.9,5.9
		c1.6-3.5,5.1-5.9,9.1-5.9h10h10c5.5,0,10-4.5,10-10C200,10.5,195.5,6,190,6z"/>
	<path fill="#0071BC" d="M197,10.9L197,10.9c-0.6,0.6-1.5,0.6-2.1,0l-7.8-7.8c-0.6-0.6-0.6-1.5,0-2.1v0c0.6-0.6,1.5-0.6,2.1,0
		l7.8,7.8C197.5,9.4,197.5,10.4,197,10.9z"/>
	<path fill="#0071BC" d="M189,10.9L189,10.9c-0.6,0.6-1.5,0.6-2.1,0l-7.8-7.8c-0.6-0.6-0.6-1.5,0-2.1v0c0.6-0.6,1.5-0.6,2.1,0
		l7.8,7.8C189.5,9.4,189.5,10.4,189,10.9z"/>
	<path opacity="0.7" fill="#0071BC" d="M170,46h10c0.3,0,0.7,0,1-0.1c10.6-0.5,19-9.2,19-19.9v0c0-2.1-0.3-4-0.9-5.9
		c-1.6,3.5-5.1,5.9-9.1,5.9h-10l-10,0c-5.5,0-10,4.5-10,10C160,41.5,164.5,46,170,46z"/>
	<path fill="#0071BC" d="M163.1,41.1L163.1,41.1c0.6-0.6,1.5-0.6,2.1,0l7.8,7.8c0.6,0.6,0.6,1.5,0,2.1l0,0c-0.6,0.6-1.5,0.6-2.1,0
		l-7.8-7.8C162.5,42.6,162.5,41.6,163.1,41.1z"/>
	<path fill="#0071BC" d="M171.1,41.1L171.1,41.1c0.6-0.6,1.5-0.6,2.1,0l7.8,7.8c0.6,0.6,0.6,1.5,0,2.1l0,0c-0.6,0.6-1.5,0.6-2.1,0
		l-7.8-7.8C170.5,42.6,170.5,41.6,171.1,41.1z"/>
	<path fill="#808080" d="M-140-15L-140-15c22.1,0,40,17.9,40,40v0c0,22.1-17.9,40-40,40h0c-22.1,0-40-17.9-40-40v0
		C-180,2.9-162.1-15-140-15z"/>
	<path opacity="0.7" fill="#0071BC" d="M-130,6h-10c-0.3,0-0.7,0-1,0.1c-10.6,0.5-19,9.2-19,19.9v0c0,2.1,0.3,4,0.9,5.9
		c1.6-3.5,5.1-5.9,9.1-5.9h10h10c5.5,0,10-4.5,10-10C-120,10.5-124.5,6-130,6z"/>
	<path fill="#0071BC" d="M-123,10.9L-123,10.9c-0.6,0.6-1.5,0.6-2.1,0l-7.8-7.8c-0.6-0.6-0.6-1.5,0-2.1v0c0.6-0.6,1.5-0.6,2.1,0
		l7.8,7.8C-122.5,9.4-122.5,10.4-123,10.9z"/>
	<path fill="#0071BC" d="M-131,10.9L-131,10.9c-0.6,0.6-1.5,0.6-2.1,0l-7.8-7.8c-0.6-0.6-0.6-1.5,0-2.1v0c0.6-0.6,1.5-0.6,2.1,0
		l7.8,7.8C-130.5,9.4-130.5,10.4-131,10.9z"/>
	<path opacity="0.7" fill="#0071BC" d="M-150,46h10c0.3,0,0.7,0,1-0.1c10.6-0.5,19-9.2,19-19.9v0c0-2.1-0.3-4-0.9-5.9
		c-1.6,3.5-5.1,5.9-9.1,5.9h-10l-10,0c-5.5,0-10,4.5-10,10C-160,41.5-155.5,46-150,46z"/>
	<path fill="#0071BC" d="M-156.9,41.1L-156.9,41.1c0.6-0.6,1.5-0.6,2.1,0l7.8,7.8c0.6,0.6,0.6,1.5,0,2.1l0,0c-0.6,0.6-1.5,0.6-2.1,0
		l-7.8-7.8C-157.5,42.6-157.5,41.6-156.9,41.1z"/>
	<path fill="#0071BC" d="M-148.9,41.1L-148.9,41.1c0.6-0.6,1.5-0.6,2.1,0l7.8,7.8c0.6,0.6,0.6,1.5,0,2.1l0,0c-0.6,0.6-1.5,0.6-2.1,0
		l-7.8-7.8C-149.5,42.6-149.5,41.6-148.9,41.1z"/>
	<rect x="20" y="-104" opacity="0.2" fill="#FF4489" width="20" height="20"/>
	<path opacity="0.2" fill="#FF4489" d="M20-74H10C4.5-74,0-78.5,0-84v0c0-5.5,4.5-10,10-10h10c5.5,0,10,4.5,10,10v0
		C30-78.5,25.5-74,20-74z"/>
	<path opacity="0.2" fill="#FF4489" d="M30-74H20c-5.5,0-10-4.5-10-10v0c0-5.5,4.5-10,10-10h10c5.5,0,10,4.5,10,10v0
		C40-78.5,35.5-74,30-74z"/>
	<path fill="#0071BC" d="M30-126L30-126c-4.4,0-8-3.6-8-8v0c0-4.4,3.6-8,8-8h0c4.4,0,8,3.6,8,8v0C38-129.6,34.4-126,30-126z"/>
	<g>
		<path fill="#0071BC" d="M73.2,113.3l7.7,7.7c0.6,0.6,1.5,0.6,2.1,0c0.6-0.6,0.6-1.5,0-2.1l-2.8-2.8h3.8l4.9,4.9
			c0.6,0.6,1.5,0.6,2.1,0c0.6-0.6,0.6-1.5,0-2.1l-2.8-2.8H90c0.3,0,0.7,0,1-0.1c10.6-0.5,19-9.2,19-19.9v0c0-2.1-0.3-4-0.9-5.9
			c-1.6,3.5-5.1,5.9-9.1,5.9H90H80c-5.5,0-10,4.5-10,10C70,108.9,71.2,111.5,73.2,113.3z M80,98c4.4,0,8,3.6,8,8
			c0,2.7-1.3,5.1-3.4,6.5c-0.4,0.3-0.9,0.6-1.4,0.8c0,0,0,0,0,0c-0.2,0.1-0.5,0.2-0.7,0.3c0,0,0,0,0,0c-0.3,0.1-0.5,0.2-0.8,0.2l0,0
			c-0.5,0.1-1.1,0.2-1.7,0.2c-0.8,0-1.5-0.1-2.2-0.3c-0.4-0.1-0.8-0.3-1.2-0.5c0,0,0,0,0,0c-1.2-0.6-2.2-1.4-3-2.5l0,0
			c-1-1.3-1.6-3-1.6-4.7C72,101.6,75.6,98,80,98z"/>
		<path opacity="0.2" fill="#FFFFFF" d="M100,106L100,106c0,5.2-3.9,9.4-9,9.9c8.5-0.4,15.7-6.2,18.1-14c-1.5-3.4-5-5.8-9-5.9
			c0,0-0.1,0-0.1,0l-10,0C95.5,96,100,100.5,100,106z"/>
		<g opacity="0.4">
			<path opacity="0.7" fill="#FFFFFF" d="M100.2,96c4,0.1,7.4,2.5,9,5.9c0.6-1.9,0.9-3.8,0.9-5.9v0c0-2.1-0.3-4-0.9-5.9
				c-1.6,3.5-5.1,5.9-9.1,5.9l0,0C100.1,96,100.1,96,100.2,96z"/>
		</g>
		<path opacity="0" fill="#FFFFFF" d="M73.1,113.2C73.1,113.2,73.1,113.2,73.1,113.2l7.8,7.8c0.6,0.6,1.5,0.6,2.1,0
			c0.6-0.6,0.6-1.5,0-2.1l-2.8-2.8l3.8,0l5,5c0.6,0.6,1.5,0.6,2.1,0c0.6-0.6,0.6-1.5,0-2.1l-2.8-2.8l1.9,0c5.5,0,10-4.5,10-10v0
			c0-5.5-4.5-10-10-10l-10,0c-5.5,0-10,4.5-10,10v0C70,108.8,71.2,111.3,73.1,113.2z M80,98c4.4,0,8,3.6,8,8c0,2.7-1.3,5.1-3.4,6.5
			c-0.4,0.3-0.9,0.6-1.4,0.8c0,0,0,0,0,0c-0.2,0.1-0.5,0.2-0.7,0.3c0,0,0,0,0,0c-0.3,0.1-0.5,0.2-0.8,0.2l0,0
			c-0.5,0.1-1.1,0.2-1.7,0.2c-0.8,0-1.5-0.1-2.2-0.3c-0.4-0.1-0.8-0.3-1.2-0.5c0,0,0,0,0,0c-1.2-0.6-2.2-1.4-3-2.5l0,0
			c-1-1.3-1.6-3-1.6-4.7C72,101.6,75.6,98,80,98z"/>
	</g>
	<g>
		<path fill="#0071BC" d="M106.8,78.7l-7.7-7.7c-0.6-0.6-1.5-0.6-2.1,0c-0.6,0.6-0.6,1.5,0,2.1l2.8,2.8h-3.8l-4.9-4.9
			c-0.6-0.6-1.5-0.6-2.1,0c-0.6,0.6-0.6,1.5,0,2.1l2.8,2.8H90c-0.3,0-0.7,0-1,0.1C78.4,76.6,70,85.3,70,96v0c0,2.1,0.3,4,0.9,5.9
			c1.6-3.5,5.1-5.9,9.1-5.9h10h10c5.5,0,10-4.5,10-10C110,83.1,108.8,80.5,106.8,78.7z M100,94c-4.4,0-8-3.6-8-8
			c0-2.7,1.3-5.1,3.4-6.5c0.4-0.3,0.9-0.6,1.4-0.8c0,0,0,0,0,0c0.2-0.1,0.5-0.2,0.7-0.3c0,0,0,0,0,0c0.3-0.1,0.5-0.2,0.8-0.2l0,0
			c0.5-0.1,1.1-0.2,1.7-0.2c0.8,0,1.5,0.1,2.2,0.3c0.4,0.1,0.8,0.3,1.2,0.5c0,0,0,0,0,0c1.2,0.6,2.2,1.4,3,2.5l0,0
			c1,1.3,1.6,3,1.6,4.7C108,90.4,104.4,94,100,94z"/>
		<path opacity="0.2" fill="#FFFFFF" d="M80,86L80,86c0-5.2,3.9-9.4,9-9.9c-8.5,0.4-15.7,6.2-18.1,14c1.5,3.4,5,5.8,9,5.9
			c0,0,0.1,0,0.1,0l10,0C84.5,96,80,91.5,80,86z"/>
		<g opacity="0.4">
			<path opacity="0.7" fill="#FFFFFF" d="M79.9,96c-4-0.1-7.4-2.5-9-5.9C70.3,92,70,93.9,70,96v0c0,2.1,0.3,4,0.9,5.9
				c1.6-3.5,5.1-5.9,9.1-5.9l0,0C79.9,96,79.9,96,79.9,96z"/>
		</g>
		<path opacity="0" fill="#FFFFFF" d="M107,78.8C107,78.8,107,78.8,107,78.8l-7.8-7.8c-0.6-0.6-1.5-0.6-2.1,0
			c-0.6,0.6-0.6,1.5,0,2.1l2.8,2.8l-3.8,0l-5-5c-0.6-0.6-1.5-0.6-2.1,0c-0.6,0.6-0.6,1.5,0,2.1l2.8,2.8L90,76c-5.5,0-10,4.5-10,10v0
			c0,5.5,4.5,10,10,10l10,0c5.5,0,10-4.5,10-10v0C110,83.2,108.8,80.7,107,78.8z M100,94c-4.4,0-8-3.6-8-8c0-2.7,1.3-5.1,3.4-6.5
			c0.4-0.3,0.9-0.6,1.4-0.8c0,0,0,0,0,0c0.2-0.1,0.5-0.2,0.7-0.3c0,0,0,0,0,0c0.3-0.1,0.5-0.2,0.8-0.2l0,0c0.5-0.1,1.1-0.2,1.7-0.2
			c0.8,0,1.5,0.1,2.2,0.3c0.4,0.1,0.8,0.3,1.2,0.5c0,0,0,0,0,0c1.2,0.6,2.2,1.4,3,2.5l0,0c1,1.3,1.6,3,1.6,4.7
			C108,90.4,104.4,94,100,94z"/>
	</g>
	<g>
		<path opacity="0.2" fill="#FFFFFF" d="M29,126L29,126c0,5.2-3.9,9.4-9,9.9c8.5-0.4,15.7-6.2,18.1-14c-1.5-3.4-5-5.8-9-5.9
			c0,0-0.1,0-0.1,0l-10,0C24.5,116,29,120.5,29,126z"/>
		<g opacity="0.4">
			<path opacity="0.7" fill="#FFFFFF" d="M29.2,116c4,0.1,7.4,2.5,9,5.9c0.6-1.9,0.9-3.8,0.9-5.9v0c0-2.1-0.3-4-0.9-5.9
				c-1.6,3.5-5.1,5.9-9.1,5.9l0,0C29.1,116,29.1,116,29.2,116z"/>
		</g>
		<path opacity="0" fill="#FFFFFF" d="M2.1,133.2C2.1,133.2,2.1,133.2,2.1,133.2l7.8,7.8c0.6,0.6,1.5,0.6,2.1,0
			c0.6-0.6,0.6-1.5,0-2.1L9.1,136l3.8,0l5,5c0.6,0.6,1.5,0.6,2.1,0c0.6-0.6,0.6-1.5,0-2.1l-2.8-2.8l1.9,0c5.5,0,10-4.5,10-10v0
			c0-5.5-4.5-10-10-10l-10,0c-5.5,0-10,4.5-10,10v0C-1,128.8,0.2,131.3,2.1,133.2z M9,118c4.4,0,8,3.6,8,8c0,2.7-1.3,5.1-3.4,6.5
			c-0.4,0.3-0.9,0.6-1.4,0.8c0,0,0,0,0,0c-0.2,0.1-0.5,0.2-0.7,0.3c0,0,0,0,0,0c-0.3,0.1-0.5,0.2-0.8,0.2l0,0
			c-0.5,0.1-1.1,0.2-1.7,0.2c-0.8,0-1.5-0.1-2.2-0.3c-0.4-0.1-0.8-0.3-1.2-0.5c0,0,0,0,0,0c-1.2-0.6-2.2-1.4-3-2.5l0,0
			c-1-1.3-1.6-3-1.6-4.7C1,121.6,4.6,118,9,118z"/>
		<path opacity="0.2" fill="#FFFFFF" d="M9,106L9,106c0-5.2,3.9-9.4,9-9.9c-8.5,0.4-15.7,6.2-18.1,14c1.5,3.4,5,5.8,9,5.9
			c0,0,0.1,0,0.1,0l10,0C13.5,116,9,111.5,9,106z"/>
		<g opacity="0.4">
			<path opacity="0.7" fill="#FFFFFF" d="M8.9,116c-4-0.1-7.4-2.5-9-5.9C-0.7,112-1,113.9-1,116v0c0,2.1,0.3,4,0.9,5.9
				c1.6-3.5,5.1-5.9,9.1-5.9l0,0C8.9,116,8.9,116,8.9,116z"/>
		</g>
		<path opacity="0" fill="#FFFFFF" d="M36,98.8C36,98.8,36,98.8,36,98.8l-7.8-7.8c-0.6-0.6-1.5-0.6-2.1,0c-0.6,0.6-0.6,1.5,0,2.1
			l2.8,2.8l-3.8,0l-5-5c-0.6-0.6-1.5-0.6-2.1,0c-0.6,0.6-0.6,1.5,0,2.1l2.8,2.8L19,96c-5.5,0-10,4.5-10,10v0c0,5.5,4.5,10,10,10
			l10,0c5.5,0,10-4.5,10-10v0C39,103.2,37.8,100.7,36,98.8z M29,114c-4.4,0-8-3.6-8-8c0-2.7,1.3-5.1,3.4-6.5
			c0.4-0.3,0.9-0.6,1.4-0.8c0,0,0,0,0,0c0.2-0.1,0.5-0.2,0.7-0.3c0,0,0,0,0,0c0.3-0.1,0.5-0.2,0.8-0.2l0,0c0.5-0.1,1.1-0.2,1.7-0.2
			c0.8,0,1.5,0.1,2.2,0.3c0.4,0.1,0.8,0.3,1.2,0.5c0,0,0,0,0,0c1.2,0.6,2.2,1.4,3,2.5l0,0c1,1.3,1.6,3,1.6,4.7
			C37,110.4,33.4,114,29,114z"/>
	</g>
	<g>
		<path fill="#FF4424" d="M36.8,7.7l-6.7-6.7c-0.6-0.6-1.5-0.6-2.1,0c-0.6,0.6-0.6,1.5,0,2.1L29.9,5h-3.8l-3.9-3.9
			c-0.6-0.6-1.5-0.6-2.1,0c-0.6,0.6-0.6,1.5,0,2.1L21.9,5H20c-0.3,0-0.7,0-1,0.1C8.4,5.6,0,14.3,0,25v0c0,2.1,0.3,4,0.9,5.9
			C2.5,27.4,5.9,25,10,25h10h10c5.5,0,10-4.5,10-10C40,12.1,38.8,9.5,36.8,7.7z M30,23c-4.4,0-8-3.6-8-8c0-2.7,1.3-5.1,3.4-6.5
			c0.4-0.3,0.9-0.6,1.4-0.8c0,0,0,0,0,0c0.2-0.1,0.5-0.2,0.7-0.3c0,0,0,0,0,0c0.3-0.1,0.5-0.2,0.8-0.2C28.9,7.1,29.4,7,30,7
			c0.8,0,1.5,0.1,2.2,0.3c0.4,0.1,0.8,0.3,1.2,0.5c0,0,0,0,0,0c1.2,0.6,2.2,1.4,3,2.5c1,1.3,1.6,3,1.6,4.7C38,19.4,34.4,23,30,23z"
			/>
		<circle fill="#FF4424" cx="27.5" cy="14.5" r="1.5"/>
		<circle fill="#FF4424" cx="34.5" cy="14.5" r="1.5"/>
	</g>
	<g>
		<path fill="#4FBCE3" d="M39.1,19.1C37.6,22.6,34.1,25,30,25H20H10C4.5,25,0,29.5,0,35c0,2.9,1.2,5.5,3.2,7.3l6.7,6.7
			c0.6,0.6,1.5,0.6,2.1,0c0.6-0.6,0.6-1.5,0-2.1L10.1,45h3.8l3.9,3.9c0.6,0.6,1.5,0.6,2.1,0c0.6-0.6,0.6-1.5,0-2.1L18.1,45H20
			c0.3,0,0.7,0,1-0.1c10.6-0.5,19-9.2,19-19.9v0C40,22.9,39.7,21,39.1,19.1z M14.6,41.5c-0.4,0.3-0.9,0.6-1.4,0.8c0,0,0,0,0,0
			c-0.2,0.1-0.5,0.2-0.7,0.3c0,0,0,0,0,0c-0.3,0.1-0.5,0.2-0.8,0.2C11.2,42.9,10.6,43,10,43c-0.8,0-1.5-0.1-2.2-0.3
			c-0.4-0.1-0.8-0.3-1.2-0.5c0,0,0,0,0,0c-1.2-0.6-2.2-1.4-3-2.5c-1-1.3-1.6-3-1.6-4.7c0-4.4,3.6-8,8-8s8,3.6,8,8
			C18,37.7,16.7,40.1,14.6,41.5z"/>
		<circle fill="#4FBCE3" cx="5.5" cy="34.5" r="1.5"/>
		<circle fill="#4FBCE3" cx="12.5" cy="34.5" r="1.5"/>
	</g>
	<g>
		<g>
			<path opacity="0.2" fill="#FFFFFF" d="M30,35L30,35c0,5.2-3.9,9.4-9,9.9c8.5-0.4,15.7-6.2,18.1-14c-1.5-3.4-5-5.8-9-5.9
				c0,0-0.1,0-0.1,0l-10,0C25.5,25,30,29.5,30,35z"/>
			<g opacity="0.4">
				<path opacity="0.7" fill="#FFFFFF" d="M30.2,25c4,0.1,7.4,2.5,9,5.9C39.7,29,40,27.1,40,25v0c0-2.1-0.3-4-0.9-5.9
					C37.6,22.6,34.1,25,30,25l0,0C30.1,25,30.1,25,30.2,25z"/>
			</g>
			<path opacity="0" fill="#FFFFFF" d="M3.1,42.2C3.1,42.2,3.1,42.2,3.1,42.2l6.8,6.8c0.6,0.6,1.5,0.6,2.1,0c0.6-0.6,0.6-1.5,0-2.1
				L10.1,45l3.8,0l4,4c0.6,0.6,1.5,0.6,2.1,0c0.6-0.6,0.6-1.5,0-2.1L18.1,45l1.9,0c5.5,0,10-4.5,10-10v0c0-5.5-4.5-10-10-10l-10,0
				C4.5,25,0,29.5,0,35v0C0,37.8,1.2,40.3,3.1,42.2z M10,27c4.4,0,8,3.6,8,8c0,2.7-1.3,5.1-3.4,6.5c-0.4,0.3-0.9,0.6-1.4,0.8
				c0,0,0,0,0,0c-0.2,0.1-0.5,0.2-0.7,0.3c0,0,0,0,0,0c-0.3,0.1-0.5,0.2-0.8,0.2l0,0C11.2,42.9,10.6,43,10,43
				c-0.8,0-1.5-0.1-2.2-0.3c-0.4-0.1-0.8-0.3-1.2-0.5c0,0,0,0,0,0c-1.2-0.6-2.2-1.4-3-2.5l0,0c-1-1.3-1.6-3-1.6-4.7
				C2,30.6,5.6,27,10,27z"/>
			<path opacity="0.2" fill="#FFFFFF" d="M10,15L10,15c0-5.2,3.9-9.4,9-9.9c-8.5,0.4-15.7,6.2-18.1,14c1.5,3.4,5,5.8,9,5.9
				c0,0,0.1,0,0.1,0l10,0C14.5,25,10,20.5,10,15z"/>
			<g opacity="0.4">
				<path opacity="0.7" fill="#FFFFFF" d="M9.9,25c-4-0.1-7.4-2.5-9-5.9C0.3,21,0,22.9,0,25v0c0,2.1,0.3,4,0.9,5.9
					C2.5,27.4,5.9,25,10,25l0,0C9.9,25,9.9,25,9.9,25z"/>
			</g>
			<path opacity="0" fill="#FFFFFF" d="M37,7.8C37,7.8,37,7.8,37,7.8l-6.8-6.8c-0.6-0.6-1.5-0.6-2.1,0c-0.6,0.6-0.6,1.5,0,2.1
				L29.9,5l-3.8,0l-4-4c-0.6-0.6-1.5-0.6-2.1,0c-0.6,0.6-0.6,1.5,0,2.1L21.9,5L20,5c-5.5,0-10,4.5-10,10v0c0,5.5,4.5,10,10,10l10,0
				c5.5,0,10-4.5,10-10v0C40,12.2,38.8,9.7,37,7.8z M30,23c-4.4,0-8-3.6-8-8c0-2.7,1.3-5.1,3.4-6.5c0.4-0.3,0.9-0.6,1.4-0.8
				c0,0,0,0,0,0c0.2-0.1,0.5-0.2,0.7-0.3c0,0,0,0,0,0c0.3-0.1,0.5-0.2,0.8-0.2l0,0C28.9,7.1,29.4,7,30,7c0.8,0,1.5,0.1,2.2,0.3
				c0.4,0.1,0.8,0.3,1.2,0.5c0,0,0,0,0,0c1.2,0.6,2.2,1.4,3,2.5l0,0c1,1.3,1.6,3,1.6,4.7C38,19.4,34.4,23,30,23z"/>
		</g>
		<path opacity="0.3" d="M27.5,16L27.5,16c-0.8,0-1.5-0.7-1.5-1.5v0c0-0.8,0.7-1.5,1.5-1.5h0c0.8,0,1.5,0.7,1.5,1.5v0
			C29,15.3,28.3,16,27.5,16z"/>
		<path opacity="0.3" d="M34.5,16L34.5,16c-0.8,0-1.5-0.7-1.5-1.5v0c0-0.8,0.7-1.5,1.5-1.5h0c0.8,0,1.5,0.7,1.5,1.5v0
			C36,15.3,35.3,16,34.5,16z"/>
		<path opacity="0.3" d="M5.5,36L5.5,36C4.7,36,4,35.3,4,34.5v0C4,33.7,4.7,33,5.5,33h0C6.3,33,7,33.7,7,34.5v0
			C7,35.3,6.3,36,5.5,36z"/>
		<path opacity="0.3" d="M12.5,36L12.5,36c-0.8,0-1.5-0.7-1.5-1.5v0c0-0.8,0.7-1.5,1.5-1.5h0c0.8,0,1.5,0.7,1.5,1.5v0
			C14,35.3,13.3,36,12.5,36z"/>
	</g>
	<g>
		<path fill="#FF4424" d="M-24.2,7.7l-7.7-7.7c-0.6-0.6-1.5-0.6-2.1,0c-0.6,0.6-0.6,1.5,0,2.1l2.8,2.8h-3.8l-4.9-4.9
			c-0.6-0.6-1.5-0.6-2.1,0c-0.6,0.6-0.6,1.5,0,2.1l2.8,2.8H-41c-0.3,0-0.7,0-1,0.1C-52.6,5.6-61,14.3-61,25v0c0,2.1,0.3,4,0.9,5.9
			c1.6-3.5,5.1-5.9,9.1-5.9h10h10c5.5,0,10-4.5,10-10C-21,12.1-22.2,9.5-24.2,7.7z M-31,23c-4.4,0-8-3.6-8-8c0-2.7,1.3-5.1,3.4-6.5
			c0.4-0.3,0.9-0.6,1.4-0.8c0,0,0,0,0,0c0.2-0.1,0.5-0.2,0.7-0.3c0,0,0,0,0,0c0.3-0.1,0.5-0.2,0.8-0.2C-32.1,7.1-31.6,7-31,7
			c0.8,0,1.5,0.1,2.2,0.3c0.4,0.1,0.8,0.3,1.2,0.5c0,0,0,0,0,0c1.2,0.6,2.2,1.4,3,2.5c1,1.3,1.6,3,1.6,4.7C-23,19.4-26.6,23-31,23z"
			/>
		<circle fill="#FF4424" cx="-33.5" cy="14.5" r="1.5"/>
		<circle fill="#FF4424" cx="-26.5" cy="14.5" r="1.5"/>
	</g>
	<g>
		<path fill="#4FBCE3" d="M-21.9,19.1c-1.6,3.5-5.1,5.9-9.1,5.9h-10h-10c-5.5,0-10,4.5-10,10c0,2.9,1.2,5.5,3.2,7.3l7.7,7.7
			c0.6,0.6,1.5,0.6,2.1,0c0.6-0.6,0.6-1.5,0-2.1l-2.8-2.8h3.8l4.9,4.9c0.6,0.6,1.5,0.6,2.1,0c0.6-0.6,0.6-1.5,0-2.1l-2.8-2.8h1.9
			c0.3,0,0.7,0,1-0.1c10.6-0.5,19-9.2,19-19.9v0C-21,22.9-21.3,21-21.9,19.1z M-46.4,41.5c-0.4,0.3-0.9,0.6-1.4,0.8c0,0,0,0,0,0
			c-0.2,0.1-0.5,0.2-0.7,0.3c0,0,0,0,0,0c-0.3,0.1-0.5,0.2-0.8,0.2c-0.5,0.1-1.1,0.2-1.7,0.2c-0.8,0-1.5-0.1-2.2-0.3
			c-0.4-0.1-0.8-0.3-1.2-0.5c0,0,0,0,0,0c-1.2-0.6-2.2-1.4-3-2.5c-1-1.3-1.6-3-1.6-4.7c0-4.4,3.6-8,8-8s8,3.6,8,8
			C-43,37.7-44.3,40.1-46.4,41.5z"/>
		<circle fill="#4FBCE3" cx="-55.5" cy="34.5" r="1.5"/>
		<circle fill="#4FBCE3" cx="-48.5" cy="34.5" r="1.5"/>
	</g>
	<g>
		<g>
			<path opacity="0.2" d="M-31,35L-31,35c0,5.2-3.9,9.4-9,9.9c8.5-0.4,15.7-6.2,18.1-14c-1.5-3.4-5-5.8-9-5.9c0,0-0.1,0-0.1,0l-10,0
				C-35.5,25-31,29.5-31,35z"/>
			<g opacity="0.4">
				<path opacity="0.7" d="M-30.8,25c4,0.1,7.4,2.5,9,5.9C-21.3,29-21,27.1-21,25v0c0-2.1-0.3-4-0.9-5.9c-1.6,3.5-5.1,5.9-9.1,5.9
					l0,0C-30.9,25-30.9,25-30.8,25z"/>
			</g>
			<path opacity="0" fill="#FFFFFF" d="M-57.9,42.2C-57.9,42.2-57.9,42.2-57.9,42.2l7.8,7.8c0.6,0.6,1.5,0.6,2.1,0
				c0.6-0.6,0.6-1.5,0-2.1l-2.8-2.8l3.8,0l5,5c0.6,0.6,1.5,0.6,2.1,0c0.6-0.6,0.6-1.5,0-2.1l-2.8-2.8l1.9,0c5.5,0,10-4.5,10-10v0
				c0-5.5-4.5-10-10-10l-10,0c-5.5,0-10,4.5-10,10v0C-61,37.8-59.8,40.3-57.9,42.2z M-51,27c4.4,0,8,3.6,8,8c0,2.7-1.3,5.1-3.4,6.5
				c-0.4,0.3-0.9,0.6-1.4,0.8c0,0,0,0,0,0c-0.2,0.1-0.5,0.2-0.7,0.3c0,0,0,0,0,0c-0.3,0.1-0.5,0.2-0.8,0.2l0,0
				c-0.5,0.1-1.1,0.2-1.7,0.2c-0.8,0-1.5-0.1-2.2-0.3c-0.4-0.1-0.8-0.3-1.2-0.5c0,0,0,0,0,0c-1.2-0.6-2.2-1.4-3-2.5l0,0
				c-1-1.3-1.6-3-1.6-4.7C-59,30.6-55.4,27-51,27z"/>
			<path opacity="0.2" d="M-51,15L-51,15c0-5.2,3.9-9.4,9-9.9c-8.5,0.4-15.7,6.2-18.1,14c1.5,3.4,5,5.8,9,5.9c0,0,0.1,0,0.1,0l10,0
				C-46.5,25-51,20.5-51,15z"/>
			<g opacity="0.4">
				<path opacity="0.7" d="M-51.1,25c-4-0.1-7.4-2.5-9-5.9C-60.7,21-61,22.9-61,25v0c0,2.1,0.3,4,0.9,5.9c1.6-3.5,5.1-5.9,9.1-5.9
					l0,0C-51.1,25-51.1,25-51.1,25z"/>
			</g>
			<path opacity="0" fill="#FFFFFF" d="M-24,7.8C-24,7.8-24,7.8-24,7.8l-7.8-7.8c-0.6-0.6-1.5-0.6-2.1,0c-0.6,0.6-0.6,1.5,0,2.1
				l2.8,2.8l-3.8,0l-5-5c-0.6-0.6-1.5-0.6-2.1,0c-0.6,0.6-0.6,1.5,0,2.1l2.8,2.8L-41,5c-5.5,0-10,4.5-10,10v0c0,5.5,4.5,10,10,10
				l10,0c5.5,0,10-4.5,10-10v0C-21,12.2-22.2,9.7-24,7.8z M-31,23c-4.4,0-8-3.6-8-8c0-2.7,1.3-5.1,3.4-6.5c0.4-0.3,0.9-0.6,1.4-0.8
				c0,0,0,0,0,0c0.2-0.1,0.5-0.2,0.7-0.3c0,0,0,0,0,0c0.3-0.1,0.5-0.2,0.8-0.2l0,0C-32.1,7.1-31.6,7-31,7c0.8,0,1.5,0.1,2.2,0.3
				c0.4,0.1,0.8,0.3,1.2,0.5c0,0,0,0,0,0c1.2,0.6,2.2,1.4,3,2.5l0,0c1,1.3,1.6,3,1.6,4.7C-23,19.4-26.6,23-31,23z"/>
		</g>
		<path opacity="0.3" d="M-33.5,16L-33.5,16c-0.8,0-1.5-0.7-1.5-1.5v0c0-0.8,0.7-1.5,1.5-1.5h0c0.8,0,1.5,0.7,1.5,1.5v0
			C-32,15.3-32.7,16-33.5,16z"/>
		<path opacity="0.3" d="M-26.5,16L-26.5,16c-0.8,0-1.5-0.7-1.5-1.5v0c0-0.8,0.7-1.5,1.5-1.5h0c0.8,0,1.5,0.7,1.5,1.5v0
			C-25,15.3-25.7,16-26.5,16z"/>
		<path opacity="0.3" d="M-55.5,36L-55.5,36c-0.8,0-1.5-0.7-1.5-1.5v0c0-0.8,0.7-1.5,1.5-1.5h0c0.8,0,1.5,0.7,1.5,1.5v0
			C-54,35.3-54.7,36-55.5,36z"/>
		<path opacity="0.3" d="M-48.5,36L-48.5,36c-0.8,0-1.5-0.7-1.5-1.5v0c0-0.8,0.7-1.5,1.5-1.5h0c0.8,0,1.5,0.7,1.5,1.5v0
			C-47,35.3-47.7,36-48.5,36z"/>
	</g>
	<g>
		<path fill="#FF4424" d="M-3.2-62.3l-5.7-5.7c-0.6-0.6-1.5-0.6-2.1,0c-0.6,0.6-0.6,1.5,0,2.1l0.8,0.8h-3.8l-2.9-2.9
			c-0.6-0.6-1.5-0.6-2.1,0c-0.6,0.6-0.6,1.5,0,2.1l0.8,0.8H-20c-0.3,0-0.7,0-1,0.1c-10.6,0.5-19,9.2-19,19.9v0c0,2.1,0.3,4,0.9,5.9
			c1.6-3.5,5.1-5.9,9.1-5.9h10h10c5.5,0,10-4.5,10-10C0-57.9-1.2-60.5-3.2-62.3z M-10-47c-4.4,0-8-3.6-8-8c0-2.7,1.3-5.1,3.4-6.5
			c0.4-0.3,0.9-0.6,1.4-0.8c0,0,0,0,0,0c0.2-0.1,0.5-0.2,0.7-0.3c0,0,0,0,0,0c0.3-0.1,0.5-0.2,0.8-0.2c0.5-0.1,1.1-0.2,1.7-0.2
			c0.8,0,1.5,0.1,2.2,0.3c0.4,0.1,0.8,0.3,1.2,0.5c0,0,0,0,0,0c1.2,0.6,2.2,1.4,3,2.5c1,1.3,1.6,3,1.6,4.7C-2-50.6-5.6-47-10-47z"/>
		<circle fill="#FF4424" cx="-12.5" cy="-55.5" r="1.5"/>
		<circle fill="#FF4424" cx="-5.5" cy="-55.5" r="1.5"/>
	</g>
	<g>
		<path fill="#4FBCE3" d="M-0.9-50.9C-2.4-47.4-5.9-45-10-45h-10h-10c-5.5,0-10,4.5-10,10c0,2.9,1.2,5.5,3.2,7.3l5.7,5.7
			c0.6,0.6,1.5,0.6,2.1,0c0.6-0.6,0.6-1.5,0-2.1l-0.8-0.8h3.8l2.9,2.9c0.6,0.6,1.5,0.6,2.1,0c0.6-0.6,0.6-1.5,0-2.1l-0.8-0.8h1.9
			c0.3,0,0.7,0,1-0.1C-8.4-25.6,0-34.3,0-45v0C0-47.1-0.3-49-0.9-50.9z M-25.4-28.5c-0.4,0.3-0.9,0.6-1.4,0.8c0,0,0,0,0,0
			c-0.2,0.1-0.5,0.2-0.7,0.3c0,0,0,0,0,0c-0.3,0.1-0.5,0.2-0.8,0.2c-0.5,0.1-1.1,0.2-1.7,0.2c-0.8,0-1.5-0.1-2.2-0.3
			c-0.4-0.1-0.8-0.3-1.2-0.5c0,0,0,0,0,0c-1.2-0.6-2.2-1.4-3-2.5c-1-1.3-1.6-3-1.6-4.7c0-4.4,3.6-8,8-8s8,3.6,8,8
			C-22-32.3-23.3-29.9-25.4-28.5z"/>
		<circle fill="#4FBCE3" cx="-34.5" cy="-35.5" r="1.5"/>
		<circle fill="#4FBCE3" cx="-27.5" cy="-35.5" r="1.5"/>
	</g>
	<g>
		<g>
			<path opacity="0.2" fill="#FFFFFF" d="M-10-35L-10-35c0,5.2-3.9,9.4-9,9.9c8.5-0.4,15.7-6.2,18.1-14c-1.5-3.4-5-5.8-9-5.9
				c0,0-0.1,0-0.1,0l-10,0C-14.5-45-10-40.5-10-35z"/>
			<g opacity="0.4">
				<path opacity="0.7" fill="#FFFFFF" d="M-9.8-45c4,0.1,7.4,2.5,9,5.9C-0.3-41,0-42.9,0-45v0c0-2.1-0.3-4-0.9-5.9
					C-2.4-47.4-5.9-45-10-45l0,0C-9.9-45-9.9-45-9.8-45z"/>
			</g>
			<path opacity="0" fill="#FFFFFF" d="M-36.9-27.8C-36.9-27.8-36.9-27.8-36.9-27.8l5.8,5.8c0.6,0.6,1.5,0.6,2.1,0
				c0.6-0.6,0.6-1.5,0-2.1l-0.8-0.8l3.8,0l3,3c0.6,0.6,1.5,0.6,2.1,0c0.6-0.6,0.6-1.5,0-2.1l-0.8-0.8l1.9,0c5.5,0,10-4.5,10-10v0
				c0-5.5-4.5-10-10-10l-10,0c-5.5,0-10,4.5-10,10v0C-40-32.2-38.8-29.7-36.9-27.8z M-30-43c4.4,0,8,3.6,8,8c0,2.7-1.3,5.1-3.4,6.5
				c-0.4,0.3-0.9,0.6-1.4,0.8c0,0,0,0,0,0c-0.2,0.1-0.5,0.2-0.7,0.3c0,0,0,0,0,0c-0.3,0.1-0.5,0.2-0.8,0.2l0,0
				c-0.5,0.1-1.1,0.2-1.7,0.2c-0.8,0-1.5-0.1-2.2-0.3c-0.4-0.1-0.8-0.3-1.2-0.5c0,0,0,0,0,0c-1.2-0.6-2.2-1.4-3-2.5l0,0
				c-1-1.3-1.6-3-1.6-4.7C-38-39.4-34.4-43-30-43z"/>
			<path opacity="0.2" fill="#FFFFFF" d="M-30-55L-30-55c0-5.2,3.9-9.4,9-9.9c-8.5,0.4-15.7,6.2-18.1,14c1.5,3.4,5,5.8,9,5.9
				c0,0,0.1,0,0.1,0l10,0C-25.5-45-30-49.5-30-55z"/>
			<g opacity="0.4">
				<path opacity="0.7" fill="#FFFFFF" d="M-30.1-45c-4-0.1-7.4-2.5-9-5.9C-39.7-49-40-47.1-40-45v0c0,2.1,0.3,4,0.9,5.9
					c1.6-3.5,5.1-5.9,9.1-5.9l0,0C-30.1-45-30.1-45-30.1-45z"/>
			</g>
			<path opacity="0" fill="#FFFFFF" d="M-3-62.2C-3-62.2-3-62.2-3-62.2l-5.8-5.8c-0.6-0.6-1.5-0.6-2.1,0c-0.6,0.6-0.6,1.5,0,2.1
				l0.8,0.8l-3.8,0l-3-3c-0.6-0.6-1.5-0.6-2.1,0c-0.6,0.6-0.6,1.5,0,2.1l0.8,0.8l-1.9,0c-5.5,0-10,4.5-10,10v0c0,5.5,4.5,10,10,10
				l10,0c5.5,0,10-4.5,10-10v0C0-57.8-1.2-60.3-3-62.2z M-10-47c-4.4,0-8-3.6-8-8c0-2.7,1.3-5.1,3.4-6.5c0.4-0.3,0.9-0.6,1.4-0.8
				c0,0,0,0,0,0c0.2-0.1,0.5-0.2,0.7-0.3c0,0,0,0,0,0c0.3-0.1,0.5-0.2,0.8-0.2l0,0c0.5-0.1,1.1-0.2,1.7-0.2c0.8,0,1.5,0.1,2.2,0.3
				c0.4,0.1,0.8,0.3,1.2,0.5c0,0,0,0,0,0c1.2,0.6,2.2,1.4,3,2.5l0,0c1,1.3,1.6,3,1.6,4.7C-2-50.6-5.6-47-10-47z"/>
		</g>
		<path opacity="0.3" d="M-12.5-54L-12.5-54c-0.8,0-1.5-0.7-1.5-1.5v0c0-0.8,0.7-1.5,1.5-1.5h0c0.8,0,1.5,0.7,1.5,1.5v0
			C-11-54.7-11.7-54-12.5-54z"/>
		<path opacity="0.3" d="M-5.5-54L-5.5-54C-6.3-54-7-54.7-7-55.5v0c0-0.8,0.7-1.5,1.5-1.5h0c0.8,0,1.5,0.7,1.5,1.5v0
			C-4-54.7-4.7-54-5.5-54z"/>
		<path opacity="0.3" d="M-34.5-34L-34.5-34c-0.8,0-1.5-0.7-1.5-1.5v0c0-0.8,0.7-1.5,1.5-1.5h0c0.8,0,1.5,0.7,1.5,1.5v0
			C-33-34.7-33.7-34-34.5-34z"/>
		<path opacity="0.3" d="M-27.5-34L-27.5-34c-0.8,0-1.5-0.7-1.5-1.5v0c0-0.8,0.7-1.5,1.5-1.5h0c0.8,0,1.5,0.7,1.5,1.5v0
			C-26-34.7-26.7-34-27.5-34z"/>
	</g>
	<g>
		<path fill="#FF4424" d="M-53.2-62.3l-6.7-6.7c-0.6-0.6-1.5-0.6-2.1,0c-0.6,0.6-0.6,1.5,0,2.1l1.8,1.8h-3.8l-3.9-3.9
			c-0.6-0.6-1.5-0.6-2.1,0c-0.6,0.6-0.6,1.5,0,2.1l1.8,1.8H-70c-0.3,0-0.7,0-1,0.1c-10.6,0.5-19,9.2-19,19.9v0c0,2.1,0.3,4,0.9,5.9
			c1.6-3.5,5.1-5.9,9.1-5.9h10h10c5.5,0,10-4.5,10-10C-50-57.9-51.2-60.5-53.2-62.3z M-60-47c-4.4,0-8-3.6-8-8
			c0-2.7,1.3-5.1,3.4-6.5c0.4-0.3,0.9-0.6,1.4-0.8c0,0,0,0,0,0c0.2-0.1,0.5-0.2,0.7-0.3c0,0,0,0,0,0c0.3-0.1,0.5-0.2,0.8-0.2
			c0.5-0.1,1.1-0.2,1.7-0.2c0.8,0,1.5,0.1,2.2,0.3c0.4,0.1,0.8,0.3,1.2,0.5c0,0,0,0,0,0c1.2,0.6,2.2,1.4,3,2.5c1,1.3,1.6,3,1.6,4.7
			C-52-50.6-55.6-47-60-47z"/>
		<circle fill="#FF4424" cx="-62.5" cy="-55.5" r="1.5"/>
		<circle fill="#FF4424" cx="-55.5" cy="-55.5" r="1.5"/>
	</g>
	<g>
		<path fill="#4FBCE3" d="M-50.9-50.9c-1.6,3.5-5.1,5.9-9.1,5.9h-10h-10c-5.5,0-10,4.5-10,10c0,2.9,1.2,5.5,3.2,7.3l6.7,6.7
			c0.6,0.6,1.5,0.6,2.1,0c0.6-0.6,0.6-1.5,0-2.1l-1.8-1.8h3.8l3.9,3.9c0.6,0.6,1.5,0.6,2.1,0c0.6-0.6,0.6-1.5,0-2.1l-1.8-1.8h1.9
			c0.3,0,0.7,0,1-0.1c10.6-0.5,19-9.2,19-19.9v0C-50-47.1-50.3-49-50.9-50.9z M-75.4-28.5c-0.4,0.3-0.9,0.6-1.4,0.8c0,0,0,0,0,0
			c-0.2,0.1-0.5,0.2-0.7,0.3c0,0,0,0,0,0c-0.3,0.1-0.5,0.2-0.8,0.2c-0.5,0.1-1.1,0.2-1.7,0.2c-0.8,0-1.5-0.1-2.2-0.3
			c-0.4-0.1-0.8-0.3-1.2-0.5c0,0,0,0,0,0c-1.2-0.6-2.2-1.4-3-2.5c-1-1.3-1.6-3-1.6-4.7c0-4.4,3.6-8,8-8s8,3.6,8,8
			C-72-32.3-73.3-29.9-75.4-28.5z"/>
		<circle fill="#4FBCE3" cx="-84.5" cy="-35.5" r="1.5"/>
		<circle fill="#4FBCE3" cx="-77.5" cy="-35.5" r="1.5"/>
	</g>
	<g>
		<g>
			<path opacity="0.2" fill="#FFFFFF" d="M-60-35L-60-35c0,5.2-3.9,9.4-9,9.9c8.5-0.4,15.7-6.2,18.1-14c-1.5-3.4-5-5.8-9-5.9
				c0,0-0.1,0-0.1,0l-10,0C-64.5-45-60-40.5-60-35z"/>
			<g opacity="0.4">
				<path opacity="0.7" fill="#FFFFFF" d="M-59.8-45c4,0.1,7.4,2.5,9,5.9C-50.3-41-50-42.9-50-45v0c0-2.1-0.3-4-0.9-5.9
					c-1.6,3.5-5.1,5.9-9.1,5.9l0,0C-59.9-45-59.9-45-59.8-45z"/>
			</g>
			<path opacity="0" fill="#FFFFFF" d="M-86.9-27.8C-86.9-27.8-86.9-27.8-86.9-27.8l6.8,6.8c0.6,0.6,1.5,0.6,2.1,0
				c0.6-0.6,0.6-1.5,0-2.1l-1.8-1.8l3.8,0l4,4c0.6,0.6,1.5,0.6,2.1,0c0.6-0.6,0.6-1.5,0-2.1l-1.8-1.8l1.9,0c5.5,0,10-4.5,10-10v0
				c0-5.5-4.5-10-10-10l-10,0c-5.5,0-10,4.5-10,10v0C-90-32.2-88.8-29.7-86.9-27.8z M-80-43c4.4,0,8,3.6,8,8c0,2.7-1.3,5.1-3.4,6.5
				c-0.4,0.3-0.9,0.6-1.4,0.8c0,0,0,0,0,0c-0.2,0.1-0.5,0.2-0.7,0.3c0,0,0,0,0,0c-0.3,0.1-0.5,0.2-0.8,0.2l0,0
				c-0.5,0.1-1.1,0.2-1.7,0.2c-0.8,0-1.5-0.1-2.2-0.3c-0.4-0.1-0.8-0.3-1.2-0.5c0,0,0,0,0,0c-1.2-0.6-2.2-1.4-3-2.5l0,0
				c-1-1.3-1.6-3-1.6-4.7C-88-39.4-84.4-43-80-43z"/>
			<path opacity="0.2" fill="#FFFFFF" d="M-80-55L-80-55c0-5.2,3.9-9.4,9-9.9c-8.5,0.4-15.7,6.2-18.1,14c1.5,3.4,5,5.8,9,5.9
				c0,0,0.1,0,0.1,0l10,0C-75.5-45-80-49.5-80-55z"/>
			<g opacity="0.4">
				<path opacity="0.7" fill="#FFFFFF" d="M-80.1-45c-4-0.1-7.4-2.5-9-5.9C-89.7-49-90-47.1-90-45v0c0,2.1,0.3,4,0.9,5.9
					c1.6-3.5,5.1-5.9,9.1-5.9l0,0C-80.1-45-80.1-45-80.1-45z"/>
			</g>
			<path opacity="0" fill="#FFFFFF" d="M-53-62.2C-53-62.2-53-62.2-53-62.2l-6.8-6.8c-0.6-0.6-1.5-0.6-2.1,0c-0.6,0.6-0.6,1.5,0,2.1
				l1.8,1.8l-3.8,0l-4-4c-0.6-0.6-1.5-0.6-2.1,0c-0.6,0.6-0.6,1.5,0,2.1l1.8,1.8l-1.9,0c-5.5,0-10,4.5-10,10v0c0,5.5,4.5,10,10,10
				l10,0c5.5,0,10-4.5,10-10v0C-50-57.8-51.2-60.3-53-62.2z M-60-47c-4.4,0-8-3.6-8-8c0-2.7,1.3-5.1,3.4-6.5
				c0.4-0.3,0.9-0.6,1.4-0.8c0,0,0,0,0,0c0.2-0.1,0.5-0.2,0.7-0.3c0,0,0,0,0,0c0.3-0.1,0.5-0.2,0.8-0.2l0,0c0.5-0.1,1.1-0.2,1.7-0.2
				c0.8,0,1.5,0.1,2.2,0.3c0.4,0.1,0.8,0.3,1.2,0.5c0,0,0,0,0,0c1.2,0.6,2.2,1.4,3,2.5l0,0c1,1.3,1.6,3,1.6,4.7
				C-52-50.6-55.6-47-60-47z"/>
		</g>
		<path opacity="0.3" d="M-62.5-54L-62.5-54c-0.8,0-1.5-0.7-1.5-1.5v0c0-0.8,0.7-1.5,1.5-1.5h0c0.8,0,1.5,0.7,1.5,1.5v0
			C-61-54.7-61.7-54-62.5-54z"/>
		<path opacity="0.3" d="M-55.5-54L-55.5-54c-0.8,0-1.5-0.7-1.5-1.5v0c0-0.8,0.7-1.5,1.5-1.5h0c0.8,0,1.5,0.7,1.5,1.5v0
			C-54-54.7-54.7-54-55.5-54z"/>
		<path opacity="0.3" d="M-84.5-34L-84.5-34c-0.8,0-1.5-0.7-1.5-1.5v0c0-0.8,0.7-1.5,1.5-1.5h0c0.8,0,1.5,0.7,1.5,1.5v0
			C-83-34.7-83.7-34-84.5-34z"/>
		<path opacity="0.3" d="M-77.5-34L-77.5-34c-0.8,0-1.5-0.7-1.5-1.5v0c0-0.8,0.7-1.5,1.5-1.5h0c0.8,0,1.5,0.7,1.5,1.5v0
			C-76-34.7-76.7-34-77.5-34z"/>
	</g>
</g>
</svg>
