<svg version="1.1"
	 xmlns="http://www.w3.org/2000/svg" xmlns:xlink="http://www.w3.org/1999/xlink" width="42px" height="44px" viewBox="0 0 42 44" enable-background="new 0 0 42 44" xml:space="preserve">
<defs>
</defs>
<g>
	<path fill="#fff" d="M41.113,18.102C39.547,21.577,36.06,24,32,24H22H12C6.477,24,2,28.477,2,34c0,5.523,4.477,10,10,10h10
		c0.345,0,0.686-0.018,1.022-0.052C33.59,43.413,42,34.701,42,24v0C42,21.947,41.688,19.966,41.113,18.102z M12,42c-4.4,0-8-3.6-8-8
		c0-4.4,3.6-8,8-8s8,3.6,8,8C20,38.4,16.4,42,12,42z"/>
	<path fill="#fff" d="M7.5,32C6.675,32,6,32.675,6,33.5S6.675,35,7.5,35S9,34.325,9,33.5S8.325,32,7.5,32z"/>
	<path fill="#fff" d="M14.5,32c-0.825,0-1.5,0.675-1.5,1.5s0.675,1.5,1.5,1.5s1.5-0.675,1.5-1.5S15.325,32,14.5,32z"/>
</g>
<g>
	<path fill="#fff" d="M30,0H20c-0.345,0-0.686,0.018-1.022,0.052C8.41,0.587,0,9.299,0,20v0c0,2.053,0.312,4.034,0.887,5.898
		C2.453,22.423,5.94,20,10,20h10h10c5.523,0,10-4.477,10-10C40,4.477,35.523,0,30,0z M30,18c-4.4,0-8-3.6-8-8c0-4.4,3.6-8,8-8
		s8,3.6,8,8C38,14.4,34.4,18,30,18z"/>
	<path fill="#fff" d="M27.5,8C26.675,8,26,8.675,26,9.5s0.675,1.5,1.5,1.5S29,10.325,29,9.5S28.325,8,27.5,8z"/>
	<path fill="#fff" d="M34.5,8C33.675,8,33,8.675,33,9.5s0.675,1.5,1.5,1.5S36,10.325,36,9.5S35.325,8,34.5,8z"/>
</g>
</svg>
