<?xml version="1.0" encoding="iso-8859-1"?>
<!-- Generator: Adobe Illustrator 17.0.0, SVG Export Plug-In . SVG Version: 6.00 Build 0)  -->
<!DOCTYPE svg PUBLIC "-//W3C//DTD SVG 1.1//EN" "http://www.w3.org/Graphics/SVG/1.1/DTD/svg11.dtd">
<svg version="1.1" id="Layer_1" xmlns="http://www.w3.org/2000/svg" xmlns:xlink="http://www.w3.org/1999/xlink" x="0px" y="0px"
	 width="88px" height="28px" viewBox="0 0 88 28" style="enable-background:new 0 0 88 28;" xml:space="preserve">
<path style="fill:#FFC400;" d="M44,0H30v14c0,7.7,6.3,14,14,14s14-6.3,14-14S51.7,0,44,0z"/>
<path style="fill:#FF0044;" d="M88,14c0-7.7-6.3-14-14-14S60,6.3,60,14v14h14C81.7,28,88,21.7,88,14z"/>
<path style="fill:#00BBFF;" d="M14,28h14V14c0-7.7-6.3-14-14-14S0,6.3,0,14S6.3,28,14,28z"/>
<path style="fill:#4F2F00;" d="M42,18c-1.1,0-2-0.9-2-2s0.9-2,2-2s2,0.9,2,2S43.1,18,42,18z M52,18c-1.1,0-2-0.9-2-2s0.9-2,2-2
	s2,0.9,2,2S53.1,18,52,18z"/>
<path style="fill:#5F0007;" d="M74,12c0,1.1-0.9,2-2,2s-2-0.9-2-2s0.9-2,2-2S74,10.9,74,12z M84,12c0,1.1-0.9,2-2,2s-2-0.9-2-2
	s0.9-2,2-2S84,10.9,84,12z"/>
<path style="fill:#00275A;" d="M16,10c1.1,0,2,0.9,2,2s-0.9,2-2,2s-2-0.9-2-2S14.9,10,16,10z M6,10c1.1,0,2,0.9,2,2s-0.9,2-2,2
	s-2-0.9-2-2S4.9,10,6,10z"/>
</svg>
