<!-- Generator: Adobe Illustrator 17.0.0, SVG Export Plug-In  -->
<svg version="1.1"
	 xmlns="http://www.w3.org/2000/svg" xmlns:xlink="http://www.w3.org/1999/xlink"
	 x="0px" y="0px" width="88px" height="28px" viewBox="0 0 88 28" enable-background="new 0 0 88 28" xml:space="preserve">
<defs>
</defs>
<path fill="#fff" d="M44,0H30v14c0,7.7,6.3,14,14,14s14-6.3,14-14S51.7,0,44,0z M42,18c-1.1,0-2-0.9-2-2c0-1.1,0.9-2,2-2
	s2,0.9,2,2C44,17.1,43.1,18,42,18z M52,18c-1.1,0-2-0.9-2-2c0-1.1,0.9-2,2-2s2,0.9,2,2C54,17.1,53.1,18,52,18z"/>
<path fill="#fff" d="M88,14c0-7.7-6.3-14-14-14S60,6.3,60,14v14h14C81.7,28,88,21.7,88,14z M74,12c0,1.1-0.9,2-2,2s-2-0.9-2-2
	c0-1.1,0.9-2,2-2S74,10.9,74,12z M84,12c0,1.1-0.9,2-2,2s-2-0.9-2-2c0-1.1,0.9-2,2-2S84,10.9,84,12z"/>
<path fill="#fff" d="M14,28h14V14c0-7.7-6.3-14-14-14C6.3,0,0,6.3,0,14S6.3,28,14,28z M16,10c1.1,0,2,0.9,2,2c0,1.1-0.9,2-2,2
	s-2-0.9-2-2C14,10.9,14.9,10,16,10z M6,10c1.1,0,2,0.9,2,2c0,1.1-0.9,2-2,2s-2-0.9-2-2C4,10.9,4.9,10,6,10z"/>
</svg>
