<?xml version="1.0" encoding="utf-8"?>
<!-- Generator: Adobe Illustrator 18.1.1, SVG Export Plug-In . SVG Version: 6.00 Build 0)  -->
<svg version="1.1" xmlns="http://www.w3.org/2000/svg" xmlns:xlink="http://www.w3.org/1999/xlink" x="0px" y="0px"
	 viewBox="0 0 40 50" enable-background="new 0 0 40 50" xml:space="preserve">
<g id="Layer_1" display="none">
	<g display="inline" enable-background="new    ">
		<g>
			<defs>
				<rect id="SVGID_1_" x="0" y="-1" width="40" height="52"/>
			</defs>
			<clipPath id="SVGID_2_">
				<use xlink:href="#SVGID_1_"  overflow="visible"/>
			</clipPath>
			<g clip-path="url(#SVGID_2_)">
				<defs>
					<circle id="SVGID_3_" cx="20" cy="25" r="20"/>
				</defs>
				<clipPath id="SVGID_4_">
					<use xlink:href="#SVGID_3_"  overflow="visible"/>
				</clipPath>
				<g clip-path="url(#SVGID_4_)">
					<defs>
						<rect id="SVGID_5_" x="0" y="-1" width="40" height="52"/>
					</defs>
					<clipPath id="SVGID_6_">
						<use xlink:href="#SVGID_5_"  overflow="visible"/>
					</clipPath>
					<g clip-path="url(#SVGID_6_)" enable-background="new    ">
						<g>
							<defs>
								<rect id="SVGID_7_" x="0" y="5" width="40" height="40"/>
							</defs>
							<clipPath id="SVGID_8_">
								<use xlink:href="#SVGID_7_"  overflow="visible"/>
							</clipPath>
							<g clip-path="url(#SVGID_8_)">
								<defs>
									<rect id="SVGID_9_" x="0" y="5" width="40" height="40"/>
								</defs>
								<clipPath id="SVGID_10_">
									<use xlink:href="#SVGID_9_"  overflow="visible"/>
								</clipPath>
								<rect x="-5" clip-path="url(#SVGID_10_)" fill="pink" width="50" height="50"/>
							</g>
							<g clip-path="url(#SVGID_8_)">
								<defs>
									<rect id="SVGID_11_" x="20" y="5" width="20" height="40"/>
								</defs>
								<clipPath id="SVGID_12_">
									<use xlink:href="#SVGID_11_"  overflow="visible"/>
								</clipPath>
								<g clip-path="url(#SVGID_12_)">
									<defs>
										<rect id="SVGID_13_" x="0" y="5" width="40" height="40"/>
									</defs>
									<clipPath id="SVGID_14_">
										<use xlink:href="#SVGID_13_"  overflow="visible"/>
									</clipPath>
									<rect x="15" clip-path="url(#SVGID_14_)" fill="#4FBCE3" width="30" height="50"/>
									<rect x="15" opacity="0.4" clip-path="url(#SVGID_14_)" fill="#FFFFFF" width="30" height="50"/>
								</g>
							</g>
							<g clip-path="url(#SVGID_8_)">
								<defs>
									<rect id="SVGID_15_" x="0" y="15" width="20" height="20"/>
								</defs>
								<clipPath id="SVGID_16_">
									<use xlink:href="#SVGID_15_"  overflow="visible"/>
								</clipPath>
								<g clip-path="url(#SVGID_16_)">
									<defs>
										<rect id="SVGID_17_" x="0" y="5" width="40" height="40"/>
									</defs>
									<clipPath id="SVGID_18_">
										<use xlink:href="#SVGID_17_"  overflow="visible"/>
									</clipPath>
									<rect x="-5" y="10" clip-path="url(#SVGID_18_)" fill="#FF4424" width="30" height="30"/>
									<rect x="-5" y="10" opacity="0.4" clip-path="url(#SVGID_18_)" fill="#FFFFFF" width="30" height="30"/>
								</g>
							</g>
							<g clip-path="url(#SVGID_8_)">
								<defs>
									<path id="SVGID_19_" d="M20,25h10c5.5,0,10,4.5,10,10c0,5.5-4.5,10-10,10H20V25z"/>
								</defs>
								<clipPath id="SVGID_20_">
									<use xlink:href="#SVGID_19_"  overflow="visible"/>
								</clipPath>
								<g clip-path="url(#SVGID_20_)">
									<defs>
										<rect id="SVGID_21_" x="0" y="5" width="40" height="40"/>
									</defs>
									<clipPath id="SVGID_22_">
										<use xlink:href="#SVGID_21_"  overflow="visible"/>
									</clipPath>
									<rect x="15" y="20" clip-path="url(#SVGID_22_)" fill="#4FBCE3" width="30" height="30"/>
									<rect x="15" y="20" opacity="0.2" clip-path="url(#SVGID_22_)" fill="#FFFFFF" width="30" height="30"/>
								</g>
							</g>
							<g clip-path="url(#SVGID_8_)">
								<defs>
									<path id="SVGID_23_" d="M10,25C4.5,25,0,20.5,0,15V5h30v20H20H10z"/>
								</defs>
								<clipPath id="SVGID_24_">
									<use xlink:href="#SVGID_23_"  overflow="visible"/>
								</clipPath>
								<g clip-path="url(#SVGID_24_)">
									<defs>
										<rect id="SVGID_25_" x="0" y="5" width="40" height="40"/>
									</defs>
									<clipPath id="SVGID_26_">
										<use xlink:href="#SVGID_25_"  overflow="visible"/>
									</clipPath>
									<rect x="-5" clip-path="url(#SVGID_26_)" fill="#FF4424" width="40" height="30"/>
									<rect x="-5" opacity="0.2" clip-path="url(#SVGID_26_)" fill="#FFFFFF" width="40" height="30"/>
								</g>
							</g>
							<g clip-path="url(#SVGID_8_)">
								<defs>
									<path id="SVGID_27_" d="M10,15c0-5.5,4.5-10,10-10h10v20H20C14.5,25,10,20.5,10,15z"/>
								</defs>
								<clipPath id="SVGID_28_">
									<use xlink:href="#SVGID_27_"  overflow="visible"/>
								</clipPath>
								<g clip-path="url(#SVGID_28_)">
									<defs>
										<rect id="SVGID_29_" x="0" y="5" width="40" height="40"/>
									</defs>
									<clipPath id="SVGID_30_">
										<use xlink:href="#SVGID_29_"  overflow="visible"/>
									</clipPath>
									<rect x="5" clip-path="url(#SVGID_30_)" fill="#FF4424" width="30" height="30"/>
								</g>
							</g>
						</g>
					</g>
				</g>
			</g>
			<g clip-path="url(#SVGID_2_)">
				<defs>
					<path id="SVGID_31_" d="M5.1,40c-0.6-0.6-1.5-0.6-2.1,0c-0.6,0.6-0.6,1.5,0,2.1l7.8,7.8c0.6,0.6,1.5,0.6,2.1,0
						c0.6-0.6,0.6-1.5,0-2.1L5.1,40z"/>
				</defs>
				<clipPath id="SVGID_32_">
					<use xlink:href="#SVGID_31_"  overflow="visible"/>
				</clipPath>
				<g clip-path="url(#SVGID_32_)">
					<defs>
						<rect id="SVGID_33_" x="0" y="-1" width="40" height="52"/>
					</defs>
					<clipPath id="SVGID_34_">
						<use xlink:href="#SVGID_33_"  overflow="visible"/>
					</clipPath>
					
						<rect x="1.4" y="33" transform="matrix(0.7071 -0.7071 0.7071 0.7071 -29.5059 18.7665)" clip-path="url(#SVGID_34_)" fill="#4FBCE3" width="13" height="24"/>
				</g>
			</g>
			<g clip-path="url(#SVGID_2_)">
				<defs>
					<path id="SVGID_35_" d="M12.1,40c-0.6-0.6-1.5-0.6-2.1,0c-0.6,0.6-0.6,1.5,0,2.1l7.8,7.8c0.6,0.6,1.5,0.6,2.1,0
						c0.6-0.6,0.6-1.5,0-2.1L12.1,40z"/>
				</defs>
				<clipPath id="SVGID_36_">
					<use xlink:href="#SVGID_35_"  overflow="visible"/>
				</clipPath>
				<g clip-path="url(#SVGID_36_)">
					<defs>
						<rect id="SVGID_37_" x="0" y="-1" width="40" height="52"/>
					</defs>
					<clipPath id="SVGID_38_">
						<use xlink:href="#SVGID_37_"  overflow="visible"/>
					</clipPath>
					
						<rect x="8.4" y="33" transform="matrix(0.7071 -0.7071 0.7071 0.7071 -27.4556 23.7162)" clip-path="url(#SVGID_38_)" fill="#4FBCE3" width="13" height="24"/>
				</g>
			</g>
			<g clip-path="url(#SVGID_2_)">
				<defs>
					<path id="SVGID_39_" d="M0,35c0-5.5,4.5-10,10-10h10c5.5,0,10,4.5,10,10c0,5.5-4.5,10-10,10H10C4.5,45,0,40.5,0,35z"/>
				</defs>
				<clipPath id="SVGID_40_">
					<use xlink:href="#SVGID_39_"  overflow="visible"/>
				</clipPath>
				<g clip-path="url(#SVGID_40_)">
					<defs>
						<rect id="SVGID_41_" x="0" y="-1" width="40" height="52"/>
					</defs>
					<clipPath id="SVGID_42_">
						<use xlink:href="#SVGID_41_"  overflow="visible"/>
					</clipPath>
					<rect x="-5" y="20" clip-path="url(#SVGID_42_)" fill="#4FBCE3" width="40" height="30"/>
				</g>
			</g>
			<g clip-path="url(#SVGID_2_)">
				<defs>
					<path id="SVGID_43_" d="M2,35c0-4.4,3.6-8,8-8c4.4,0,8,3.6,8,8c0,4.4-3.6,8-8,8C5.6,43,2,39.4,2,35z"/>
				</defs>
				<clipPath id="SVGID_44_">
					<use xlink:href="#SVGID_43_"  overflow="visible"/>
				</clipPath>
				<g clip-path="url(#SVGID_44_)">
					<defs>
						<rect id="SVGID_45_" x="0" y="-1" width="40" height="52"/>
					</defs>
					<clipPath id="SVGID_46_">
						<use xlink:href="#SVGID_45_"  overflow="visible"/>
					</clipPath>
					<rect x="-3" y="22" clip-path="url(#SVGID_46_)" fill="#50E3C2" width="26" height="26"/>
					<rect x="-3" y="22" clip-path="url(#SVGID_46_)" fill="#FFFFFF" width="26" height="26"/>
				</g>
			</g>
			<g clip-path="url(#SVGID_2_)">
				<defs>
					<path id="SVGID_47_" d="M4,34.5C4,33.7,4.7,33,5.5,33C6.3,33,7,33.7,7,34.5C7,35.3,6.3,36,5.5,36C4.7,36,4,35.3,4,34.5z"/>
				</defs>
				<clipPath id="SVGID_48_">
					<use xlink:href="#SVGID_47_"  overflow="visible"/>
				</clipPath>
				<g clip-path="url(#SVGID_48_)">
					<defs>
						<rect id="SVGID_49_" x="0" y="-1" width="40" height="52"/>
					</defs>
					<clipPath id="SVGID_50_">
						<use xlink:href="#SVGID_49_"  overflow="visible"/>
					</clipPath>
					<rect x="-1" y="28" clip-path="url(#SVGID_50_)" fill="#4FBCE3" width="13" height="13"/>
					<rect x="-1" y="28" opacity="0.3" clip-path="url(#SVGID_50_)" width="13" height="13"/>
				</g>
			</g>
			<g clip-path="url(#SVGID_2_)">
				<defs>
					<path id="SVGID_51_" d="M11,34.5c0-0.8,0.7-1.5,1.5-1.5c0.8,0,1.5,0.7,1.5,1.5c0,0.8-0.7,1.5-1.5,1.5C11.7,36,11,35.3,11,34.5z
						"/>
				</defs>
				<clipPath id="SVGID_52_">
					<use xlink:href="#SVGID_51_"  overflow="visible"/>
				</clipPath>
				<g clip-path="url(#SVGID_52_)">
					<defs>
						<rect id="SVGID_53_" x="0" y="-1" width="40" height="52"/>
					</defs>
					<clipPath id="SVGID_54_">
						<use xlink:href="#SVGID_53_"  overflow="visible"/>
					</clipPath>
					<rect x="6" y="28" clip-path="url(#SVGID_54_)" fill="#4FBCE3" width="13" height="13"/>
					<rect x="6" y="28" opacity="0.3" clip-path="url(#SVGID_54_)" width="13" height="13"/>
				</g>
			</g>
			<g clip-path="url(#SVGID_2_)">
				<defs>
					<path id="SVGID_55_" d="M22.3,0c-0.6-0.6-1.5-0.6-2.1,0c-0.6,0.6-0.6,1.5,0,2.1l7.8,7.8c0.6,0.6,1.5,0.6,2.1,0
						c0.6-0.6,0.6-1.5,0-2.1L22.3,0z"/>
				</defs>
				<clipPath id="SVGID_56_">
					<use xlink:href="#SVGID_55_"  overflow="visible"/>
				</clipPath>
				<g clip-path="url(#SVGID_56_)">
					<defs>
						<rect id="SVGID_57_" x="0" y="-1" width="40" height="52"/>
					</defs>
					<clipPath id="SVGID_58_">
						<use xlink:href="#SVGID_57_"  overflow="visible"/>
					</clipPath>
					<rect x="14.7" y="-5.4" clip-path="url(#SVGID_58_)" fill="#FF4424" width="20.8" height="20.8"/>
				</g>
			</g>
			<g clip-path="url(#SVGID_2_)">
				<defs>
					<path id="SVGID_59_" d="M29.3,0c-0.6-0.6-1.5-0.6-2.1,0c-0.6,0.6-0.6,1.5,0,2.1l7.8,7.8c0.6,0.6,1.5,0.6,2.1,0
						c0.6-0.6,0.6-1.5,0-2.1L29.3,0z"/>
				</defs>
				<clipPath id="SVGID_60_">
					<use xlink:href="#SVGID_59_"  overflow="visible"/>
				</clipPath>
				<g clip-path="url(#SVGID_60_)">
					<defs>
						<rect id="SVGID_61_" x="0" y="-1" width="40" height="52"/>
					</defs>
					<clipPath id="SVGID_62_">
						<use xlink:href="#SVGID_61_"  overflow="visible"/>
					</clipPath>
					<rect x="21.7" y="-5.4" clip-path="url(#SVGID_62_)" fill="#FF4424" width="20.8" height="20.8"/>
				</g>
			</g>
			<g clip-path="url(#SVGID_2_)">
				<defs>
					<path id="SVGID_63_" d="M20,5h10c5.5,0,10,4.5,10,10c0,5.5-4.5,10-10,10H20V5z"/>
				</defs>
				<clipPath id="SVGID_64_">
					<use xlink:href="#SVGID_63_"  overflow="visible"/>
				</clipPath>
				<g clip-path="url(#SVGID_64_)">
					<defs>
						<rect id="SVGID_65_" x="0" y="-1" width="40" height="52"/>
					</defs>
					<clipPath id="SVGID_66_">
						<use xlink:href="#SVGID_65_"  overflow="visible"/>
					</clipPath>
					<rect x="15" clip-path="url(#SVGID_66_)" fill="#FF4424" width="30" height="30"/>
				</g>
			</g>
			<g clip-path="url(#SVGID_2_)">
				<defs>
					<path id="SVGID_67_" d="M22,15c0-4.4,3.6-8,8-8c4.4,0,8,3.6,8,8c0,4.4-3.6,8-8,8C25.6,23,22,19.4,22,15z"/>
				</defs>
				<clipPath id="SVGID_68_">
					<use xlink:href="#SVGID_67_"  overflow="visible"/>
				</clipPath>
				<g clip-path="url(#SVGID_68_)">
					<defs>
						<rect id="SVGID_69_" x="0" y="-1" width="40" height="52"/>
					</defs>
					<clipPath id="SVGID_70_">
						<use xlink:href="#SVGID_69_"  overflow="visible"/>
					</clipPath>
					<rect x="17" y="2" clip-path="url(#SVGID_70_)" fill="#9013FE" width="26" height="26"/>
					<rect x="17" y="2" clip-path="url(#SVGID_70_)" fill="#FFFFFF" width="26" height="26"/>
				</g>
			</g>
			<g clip-path="url(#SVGID_2_)">
				<defs>
					<path id="SVGID_71_" d="M26,15.5c0-0.8,0.7-1.5,1.5-1.5c0.8,0,1.5,0.7,1.5,1.5c0,0.8-0.7,1.5-1.5,1.5C26.7,17,26,16.3,26,15.5z
						"/>
				</defs>
				<clipPath id="SVGID_72_">
					<use xlink:href="#SVGID_71_"  overflow="visible"/>
				</clipPath>
				<g clip-path="url(#SVGID_72_)">
					<defs>
						<rect id="SVGID_73_" x="0" y="-1" width="40" height="52"/>
					</defs>
					<clipPath id="SVGID_74_">
						<use xlink:href="#SVGID_73_"  overflow="visible"/>
					</clipPath>
					<rect x="21" y="9" clip-path="url(#SVGID_74_)" fill="#FF4424" width="13" height="13"/>
					<rect x="21" y="9" opacity="0.3" clip-path="url(#SVGID_74_)" width="13" height="13"/>
				</g>
			</g>
			<g clip-path="url(#SVGID_2_)">
				<defs>
					<path id="SVGID_75_" d="M33,15.5c0-0.8,0.7-1.5,1.5-1.5c0.8,0,1.5,0.7,1.5,1.5c0,0.8-0.7,1.5-1.5,1.5C33.7,17,33,16.3,33,15.5z
						"/>
				</defs>
				<clipPath id="SVGID_76_">
					<use xlink:href="#SVGID_75_"  overflow="visible"/>
				</clipPath>
				<g clip-path="url(#SVGID_76_)">
					<defs>
						<rect id="SVGID_77_" x="0" y="-1" width="40" height="52"/>
					</defs>
					<clipPath id="SVGID_78_">
						<use xlink:href="#SVGID_77_"  overflow="visible"/>
					</clipPath>
					<rect x="28" y="9" clip-path="url(#SVGID_78_)" fill="#FF4424" width="13" height="13"/>
					<rect x="28" y="9" opacity="0.3" clip-path="url(#SVGID_78_)" width="13" height="13"/>
				</g>
			</g>
		</g>
	</g>
</g>
<g id="Layer_2">
	<path fill="#FFFFFF" d="M30,23c-4.4,0-8-3.6-8-8c0-2.7,1.3-5.1,3.4-6.5c0.4-0.3,0.9-0.6,1.4-0.8c0,0,0,0,0,0
		c0.2-0.1,0.5-0.2,0.7-0.3c0,0,0,0,0,0c0.3-0.1,0.5-0.2,0.8-0.2C28.9,7.1,29.4,7,30,7c0.8,0,1.5,0.1,2.2,0.3
		c0.4,0.1,0.8,0.3,1.2,0.5c0,0,0,0,0,0c1.2,0.6,2.2,1.4,3,2.5c1,1.3,1.6,3,1.6,4.7C38,19.4,34.4,23,30,23z"/>
	<g>
		<path fill="#FFFFFF" d="M14.6,41.5c-0.4,0.3-0.9,0.6-1.4,0.8c0,0,0,0,0,0c-0.2,0.1-0.5,0.2-0.7,0.3c0,0,0,0,0,0
			c-0.3,0.1-0.5,0.2-0.8,0.2C11.2,42.9,10.6,43,10,43c-0.8,0-1.5-0.1-2.2-0.3c-0.4-0.1-0.8-0.3-1.2-0.5c0,0,0,0,0,0
			c-1.2-0.6-2.2-1.4-3-2.5c-1-1.3-1.6-3-1.6-4.7c0-4.4,3.6-8,8-8s8,3.6,8,8C18,37.7,16.7,40.1,14.6,41.5z"/>
	</g>
	<path opacity="0.7" fill="#4D4D4D" d="M36.8,7.7l-6.7-6.7c-0.6-0.6-1.5-0.6-2.1,0c-0.6,0.6-0.6,1.5,0,2.1L29.9,5h-3.8l-3.9-3.9
		c-0.6-0.6-1.5-0.6-2.1,0c-0.6,0.6-0.6,1.5,0,2.1L21.9,5H20c-0.3,0-0.7,0-1,0.1C8.4,5.6,0,14.3,0,25v0c0,2.1,0.3,4,0.9,5.9
		C2.5,27.4,5.9,25,10,25h10h10c5.5,0,10-4.5,10-10C40,12.1,38.8,9.5,36.8,7.7z M30,23c-4.4,0-8-3.6-8-8c0-2.7,1.3-5.1,3.4-6.5
		c0.4-0.3,0.9-0.6,1.4-0.8c0,0,0,0,0,0c0.2-0.1,0.5-0.2,0.7-0.3c0,0,0,0,0,0c0.3-0.1,0.5-0.2,0.8-0.2C28.9,7.1,29.4,7,30,7
		c0.8,0,1.5,0.1,2.2,0.3c0.4,0.1,0.8,0.3,1.2,0.5c0,0,0,0,0,0c1.2,0.6,2.2,1.4,3,2.5c1,1.3,1.6,3,1.6,4.7C38,19.4,34.4,23,30,23z"/>
	<circle opacity="0.7" fill="#4D4D4D" cx="27.5" cy="14.5" r="1.5"/>
	<circle opacity="0.7" fill="#4D4D4D" cx="34.5" cy="14.5" r="1.5"/>
	<path opacity="0.7" fill="#B2B2B2" d="M39.1,19.1C37.6,22.6,34.1,25,30,25H20H10C4.5,25,0,29.5,0,35c0,2.9,1.2,5.5,3.2,7.3l6.7,6.7
		c0.6,0.6,1.5,0.6,2.1,0c0.6-0.6,0.6-1.5,0-2.1L10.1,45h3.8l3.9,3.9c0.6,0.6,1.5,0.6,2.1,0c0.6-0.6,0.6-1.5,0-2.1L18.1,45H20
		c0.3,0,0.7,0,1-0.1c10.6-0.5,19-9.2,19-19.9v0C40,22.9,39.7,21,39.1,19.1z M14.6,41.5c-0.4,0.3-0.9,0.6-1.4,0.8c0,0,0,0,0,0
		c-0.2,0.1-0.5,0.2-0.7,0.3c0,0,0,0,0,0c-0.3,0.1-0.5,0.2-0.8,0.2C11.2,42.9,10.6,43,10,43c-0.8,0-1.5-0.1-2.2-0.3
		c-0.4-0.1-0.8-0.3-1.2-0.5c0,0,0,0,0,0c-1.2-0.6-2.2-1.4-3-2.5c-1-1.3-1.6-3-1.6-4.7c0-4.4,3.6-8,8-8s8,3.6,8,8
		C18,37.7,16.7,40.1,14.6,41.5z"/>
	<g opacity="0.7">
		<circle fill="#4D4D4D" cx="5.5" cy="34.5" r="1.5"/>
		<circle fill="#4D4D4D" cx="12.5" cy="34.5" r="1.5"/>
	</g>
	<g>
		<g>
			<path opacity="0.2" fill="#FFFFFF" d="M30,35L30,35c0,5.2-3.9,9.4-9,9.9c8.5-0.4,15.7-6.2,18.1-14c-1.5-3.4-5-5.8-9-5.9
				c0,0-0.1,0-0.1,0l-10,0C25.5,25,30,29.5,30,35z"/>
			<g opacity="0.4">
				<path opacity="0.7" fill="#FFFFFF" d="M30.2,25c4,0.1,7.4,2.5,9,5.9C39.7,29,40,27.1,40,25v0c0-2.1-0.3-4-0.9-5.9
					C37.6,22.6,34.1,25,30,25l0,0C30.1,25,30.1,25,30.2,25z"/>
			</g>
			<path opacity="0" fill="#FFFFFF" d="M3.1,42.2C3.1,42.2,3.1,42.2,3.1,42.2l6.8,6.8c0.6,0.6,1.5,0.6,2.1,0c0.6-0.6,0.6-1.5,0-2.1
				L10.1,45l3.8,0l4,4c0.6,0.6,1.5,0.6,2.1,0c0.6-0.6,0.6-1.5,0-2.1L18.1,45l1.9,0c5.5,0,10-4.5,10-10v0c0-5.5-4.5-10-10-10l-10,0
				C4.5,25,0,29.5,0,35v0C0,37.8,1.2,40.3,3.1,42.2z M10,27c4.4,0,8,3.6,8,8c0,2.7-1.3,5.1-3.4,6.5c-0.4,0.3-0.9,0.6-1.4,0.8
				c0,0,0,0,0,0c-0.2,0.1-0.5,0.2-0.7,0.3c0,0,0,0,0,0c-0.3,0.1-0.5,0.2-0.8,0.2l0,0C11.2,42.9,10.6,43,10,43
				c-0.8,0-1.5-0.1-2.2-0.3c-0.4-0.1-0.8-0.3-1.2-0.5c0,0,0,0,0,0c-1.2-0.6-2.2-1.4-3-2.5l0,0c-1-1.3-1.6-3-1.6-4.7
				C2,30.6,5.6,27,10,27z"/>
			<path opacity="0.2" fill="#FFFFFF" d="M10,15L10,15c0-5.2,3.9-9.4,9-9.9c-8.5,0.4-15.7,6.2-18.1,14c1.5,3.4,5,5.8,9,5.9
				c0,0,0.1,0,0.1,0l10,0C14.5,25,10,20.5,10,15z"/>
			<g opacity="0.4">
				<path opacity="0.7" fill="#FFFFFF" d="M9.9,25c-4-0.1-7.4-2.5-9-5.9C0.3,21,0,22.9,0,25v0c0,2.1,0.3,4,0.9,5.9
					C2.5,27.4,5.9,25,10,25l0,0C9.9,25,9.9,25,9.9,25z"/>
			</g>
			<path opacity="0" fill="#FFFFFF" d="M37,7.8C37,7.8,37,7.8,37,7.8l-6.8-6.8c-0.6-0.6-1.5-0.6-2.1,0c-0.6,0.6-0.6,1.5,0,2.1
				L29.9,5l-3.8,0l-4-4c-0.6-0.6-1.5-0.6-2.1,0c-0.6,0.6-0.6,1.5,0,2.1L21.9,5L20,5c-5.5,0-10,4.5-10,10v0c0,5.5,4.5,10,10,10l10,0
				c5.5,0,10-4.5,10-10v0C40,12.2,38.8,9.7,37,7.8z M30,23c-4.4,0-8-3.6-8-8c0-2.7,1.3-5.1,3.4-6.5c0.4-0.3,0.9-0.6,1.4-0.8
				c0,0,0,0,0,0c0.2-0.1,0.5-0.2,0.7-0.3c0,0,0,0,0,0c0.3-0.1,0.5-0.2,0.8-0.2l0,0C28.9,7.1,29.4,7,30,7c0.8,0,1.5,0.1,2.2,0.3
				c0.4,0.1,0.8,0.3,1.2,0.5c0,0,0,0,0,0c1.2,0.6,2.2,1.4,3,2.5l0,0c1,1.3,1.6,3,1.6,4.7C38,19.4,34.4,23,30,23z"/>
		</g>
	</g>
</g>
</svg>
