<?xml version="1.0" encoding="utf-8"?>
<!-- Generator: Adobe Illustrator 17.0.0, SVG Export Plug-In . SVG Version: 6.00 Build 0)  -->
<!DOCTYPE svg PUBLIC "-//W3C//DTD SVG 1.1//EN" "http://www.w3.org/Graphics/SVG/1.1/DTD/svg11.dtd">
<svg version="1.1" id="Layer_1" xmlns="http://www.w3.org/2000/svg" xmlns:xlink="http://www.w3.org/1999/xlink" x="0px" y="0px"
	 width="40px" height="50px" viewBox="0 0 40 50" enable-background="new 0 0 40 50" xml:space="preserve">
<g opacity="0.3">
	<path opacity="0.9" fill="#FFFFFF" d="M30,23c-4.418,0-8-3.582-8-8c0-2.689,1.331-5.063,3.366-6.513
		c0.43-0.306,0.891-0.571,1.377-0.789c0.006-0.003,0.011-0.006,0.017-0.008c0.235-0.105,0.477-0.197,0.724-0.279
		c0.012-0.004,0.023-0.009,0.035-0.013c0.256-0.084,0.518-0.155,0.786-0.213C28.852,7.066,29.418,7,30,7
		c0.76,0,1.493,0.113,2.19,0.311c0.426,0.121,0.836,0.278,1.229,0.465c0.014,0.007,0.028,0.014,0.043,0.021
		c1.189,0.573,2.214,1.429,2.987,2.484C37.42,11.604,38,13.232,38,15C38,19.418,34.418,23,30,23z"/>
	<path d="M36.844,7.722L30.172,1.05c-0.586-0.586-1.536-0.586-2.121,0c-0.586,0.586-0.586,1.536,0,2.121L29.879,5h-3.757l-3.95-3.95
		c-0.586-0.586-1.536-0.586-2.121,0c-0.586,0.586-0.586,1.536,0,2.121L21.879,5H20c-0.345,0-0.686,0.018-1.022,0.052
		C8.41,5.587,0,14.299,0,25v0c0,2.053,0.312,4.034,0.887,5.898C2.453,27.423,5.94,25,10,25h10h10c5.523,0,10-4.477,10-10
		C40,12.128,38.782,9.546,36.844,7.722z M30,23c-4.418,0-8-3.582-8-8c0-2.689,1.331-5.063,3.366-6.513
		c0.43-0.306,0.891-0.571,1.377-0.789c0.006-0.003,0.011-0.006,0.017-0.008c0.235-0.105,0.477-0.197,0.724-0.279
		c0.012-0.004,0.023-0.009,0.035-0.013c0.256-0.084,0.518-0.155,0.786-0.213C28.852,7.066,29.418,7,30,7
		c0.76,0,1.493,0.113,2.19,0.311c0.426,0.121,0.836,0.278,1.229,0.465c0.014,0.007,0.028,0.014,0.043,0.021
		c1.189,0.573,2.214,1.429,2.987,2.484C37.42,11.604,38,13.232,38,15C38,19.418,34.418,23,30,23z"/>
	<circle cx="27.5" cy="14.5" r="1.5"/>
	<circle cx="34.5" cy="14.5" r="1.5"/>
</g>
<g opacity="0.7">
	<path opacity="0.9" fill="#FFFFFF" d="M14.634,41.513c-0.43,0.306-0.891,0.571-1.377,0.789c-0.006,0.003-0.011,0.006-0.017,0.008
		c-0.235,0.105-0.477,0.197-0.724,0.279c-0.012,0.004-0.023,0.009-0.035,0.013c-0.256,0.084-0.518,0.155-0.786,0.213
		C11.148,42.934,10.582,43,10,43c-0.76,0-1.493-0.113-2.19-0.311c-0.426-0.121-0.836-0.278-1.229-0.465
		c-0.014-0.007-0.028-0.014-0.043-0.021c-1.189-0.573-2.214-1.429-2.987-2.484C2.58,38.396,2,36.768,2,35c0-4.418,3.582-8,8-8
		s8,3.582,8,8C18,37.689,16.669,40.063,14.634,41.513z"/>
	<path d="M39.113,19.102C37.547,22.577,34.06,25,30,25H20H10C4.477,25,0,29.477,0,35c0,2.872,1.218,5.454,3.156,7.278l6.672,6.672
		c0.586,0.586,1.536,0.586,2.121,0c0.586-0.586,0.586-1.536,0-2.121L10.121,45h3.757l3.95,3.95c0.586,0.586,1.536,0.586,2.121,0
		c0.586-0.586,0.586-1.536,0-2.121L18.121,45H20c0.345,0,0.686-0.018,1.022-0.052C31.59,44.413,40,35.701,40,25v0
		C40,22.947,39.688,20.966,39.113,19.102z M14.634,41.513c-0.43,0.306-0.891,0.571-1.377,0.789
		c-0.006,0.003-0.011,0.006-0.017,0.008c-0.235,0.105-0.477,0.197-0.724,0.279c-0.012,0.004-0.023,0.009-0.035,0.013
		c-0.256,0.084-0.518,0.155-0.786,0.213C11.148,42.934,10.582,43,10,43c-0.76,0-1.493-0.113-2.19-0.311
		c-0.426-0.121-0.836-0.278-1.229-0.465c-0.014-0.007-0.028-0.014-0.043-0.021c-1.189-0.573-2.214-1.429-2.987-2.484
		C2.58,38.396,2,36.768,2,35c0-4.418,3.582-8,8-8s8,3.582,8,8C18,37.689,16.669,40.063,14.634,41.513z"/>
	<circle cx="5.5" cy="34.5" r="1.5"/>
	<circle cx="12.5" cy="34.5" r="1.5"/>
</g>
<g>
	<g>
		<path opacity="0.2" fill="#FFFFFF" d="M29.996,35.013L29.996,35.013c-0.007,5.178-3.947,9.431-8.99,9.937
			c8.545-0.422,15.682-6.195,18.11-14.045c-1.545-3.434-4.967-5.836-8.963-5.897c-0.048,0.001-0.096,0.005-0.144,0.005l-10-0.013
			C25.532,25.007,30.003,29.49,29.996,35.013z"/>
		<g opacity="0.4">
			<path opacity="0.7" fill="#FFFFFF" d="M30.154,25.008c3.991,0.061,7.409,2.457,8.957,5.885C39.685,29.03,40,27.053,40,25v0
				c0-2.053-0.312-4.034-0.887-5.898C37.547,22.577,34.06,25,30,25l0.009,0.013C30.058,25.013,30.105,25.008,30.154,25.008z"/>
		</g>
		<path opacity="0" fill="#FFFFFF" d="M3.05,42.171C3.05,42.171,3.05,42.171,3.05,42.171l6.779,6.779
			c0.586,0.586,1.536,0.586,2.121,0c0.586-0.586,0.586-1.536,0-2.121l-1.841-1.841l3.762,0.005l3.958,3.958
			c0.586,0.586,1.536,0.586,2.121,0c0.586-0.586,0.586-1.536,0-2.121l-1.831-1.831L19.983,45c5.523,0.007,10.006-4.464,10.013-9.987
			v0C30.003,29.49,25.532,25.007,20.009,25l-10-0.013C4.486,24.98,0.003,29.451-0.004,34.974v0
			C-0.007,37.801,1.167,40.35,3.05,42.171z M10,27c4.418,0,8,3.582,8,8c0,2.689-1.331,5.063-3.366,6.513
			c-0.43,0.306-0.891,0.571-1.377,0.789c-0.006,0.003-0.011,0.006-0.017,0.008c-0.235,0.105-0.477,0.197-0.724,0.279
			c-0.012,0.004-0.023,0.009-0.035,0.013c-0.256,0.084-0.518,0.155-0.786,0.213l0,0C11.148,42.934,10.582,43,10,43
			c-0.76,0-1.493-0.113-2.19-0.311c-0.426-0.121-0.836-0.278-1.229-0.465c-0.014-0.007-0.028-0.014-0.043-0.021
			c-1.189-0.573-2.214-1.429-2.987-2.484l0,0C2.58,38.396,2,36.768,2,35C2,30.582,5.582,27,10,27z"/>
		<path opacity="0.2" fill="#FFFFFF" d="M10.004,14.987L10.004,14.987c0.007-5.178,3.947-9.431,8.99-9.937
			c-8.545,0.422-15.682,6.195-18.11,14.045c1.545,3.434,4.967,5.836,8.963,5.897c0.048-0.001,0.096-0.005,0.144-0.005l10,0.013
			C14.468,24.993,9.997,20.51,10.004,14.987z"/>
		<g opacity="0.4">
			<path opacity="0.7" fill="#FFFFFF" d="M9.846,24.992c-3.991-0.061-7.409-2.457-8.957-5.885C0.315,20.97,0,22.947,0,25v0
				c0,2.053,0.312,4.034,0.887,5.898C2.453,27.423,5.94,25,10,25l-0.009-0.013C9.942,24.987,9.895,24.992,9.846,24.992z"/>
		</g>
		<path opacity="0" fill="#FFFFFF" d="M36.95,7.829C36.95,7.829,36.95,7.829,36.95,7.829L30.172,1.05
			c-0.586-0.586-1.536-0.586-2.121,0c-0.586,0.586-0.586,1.536,0,2.121l1.841,1.841l-3.762-0.005L22.172,1.05
			c-0.586-0.586-1.536-0.586-2.121,0c-0.586,0.586-0.586,1.536,0,2.121l1.831,1.831L20.017,5
			c-5.523-0.007-10.006,4.464-10.013,9.987v0C9.997,20.51,14.468,24.993,19.991,25l10,0.013c5.523,0.007,10.006-4.464,10.013-9.987
			v0C40.007,12.199,38.833,9.65,36.95,7.829z M30,23c-4.418,0-8-3.582-8-8c0-2.689,1.331-5.063,3.366-6.513
			c0.43-0.306,0.891-0.571,1.377-0.789c0.006-0.003,0.011-0.006,0.017-0.008c0.235-0.105,0.477-0.197,0.724-0.279
			c0.012-0.004,0.023-0.009,0.035-0.013c0.256-0.084,0.518-0.155,0.786-0.213l0,0C28.852,7.066,29.418,7,30,7
			c0.76,0,1.493,0.113,2.19,0.311c0.426,0.121,0.836,0.278,1.229,0.465c0.014,0.007,0.028,0.014,0.043,0.021
			c1.189,0.573,2.214,1.429,2.987,2.484l0,0C37.42,11.604,38,13.232,38,15C38,19.418,34.418,23,30,23z"/>
	</g>
	<path opacity="0.3" d="M27.5,16L27.5,16c-0.828,0-1.5-0.672-1.5-1.5v0c0-0.828,0.672-1.5,1.5-1.5h0c0.828,0,1.5,0.672,1.5,1.5v0
		C29,15.328,28.328,16,27.5,16z"/>
	<path opacity="0.3" d="M34.5,16L34.5,16c-0.828,0-1.5-0.672-1.5-1.5v0c0-0.828,0.672-1.5,1.5-1.5l0,0c0.828,0,1.5,0.672,1.5,1.5v0
		C36,15.328,35.328,16,34.5,16z"/>
	<path opacity="0.3" d="M5.5,36L5.5,36C4.672,36,4,35.328,4,34.5l0,0C4,33.672,4.672,33,5.5,33h0C6.328,33,7,33.672,7,34.5l0,0
		C7,35.328,6.328,36,5.5,36z"/>
	<path opacity="0.3" d="M12.5,36L12.5,36c-0.828,0-1.5-0.672-1.5-1.5l0,0c0-0.828,0.672-1.5,1.5-1.5h0c0.828,0,1.5,0.672,1.5,1.5
		l0,0C14,35.328,13.328,36,12.5,36z"/>
</g>
</svg>
