<?xml version="1.0" encoding="utf-8"?>
<!-- Generator: Adobe Illustrator 17.0.0, SVG Export Plug-In . SVG Version: 6.00 Build 0)  -->
<!DOCTYPE svg PUBLIC "-//W3C//DTD SVG 1.1//EN" "http://www.w3.org/Graphics/SVG/1.1/DTD/svg11.dtd">
<svg version="1.1" id="Layer_1" xmlns="http://www.w3.org/2000/svg" xmlns:xlink="http://www.w3.org/1999/xlink" x="0px" y="0px"
	 width="60px" height="60px" viewBox="0 0 60 60" enable-background="new 0 0 60 60" xml:space="preserve">
<g>
	<path opacity="0.7" d="M32,18c0,1.1-0.9,2-2,2l0,0c-1.1,0-2-0.9-2-2V2c0-1.1,0.9-2,2-2l0,0c1.1,0,2,0.9,2,2V18z"/>
</g>
<g>
	<path opacity="0.4" d="M32,58c0,1.1-0.9,2-2,2l0,0c-1.1,0-2-0.9-2-2V42c0-1.1,0.9-2,2-2l0,0c1.1,0,2,0.9,2,2V58z"/>
</g>
<g>
	<path opacity="0.55" d="M18,28c1.1,0,2,0.9,2,2l0,0c0,1.1-0.9,2-2,2H2c-1.1,0-2-0.9-2-2l0,0c0-1.1,0.9-2,2-2H18z"/>
</g>
<g>
	<path opacity="0.25" d="M58,28c1.1,0,2,0.9,2,2l0,0c0,1.1-0.9,2-2,2H42c-1.1,0-2-0.9-2-2l0,0c0-1.1,0.9-2,2-2H58z"/>
</g>
<g>
	<path opacity="0.65" d="M25.732,18.608c0.55,0.953,0.221,2.182-0.732,2.732l0,0c-0.953,0.55-2.182,0.221-2.732-0.732l-8-13.856
		C13.718,5.799,14.047,4.569,15,4.019l0,0c0.953-0.55,2.182-0.221,2.732,0.732L25.732,18.608z"/>
</g>
<g>
	<path opacity="0.35" d="M45.732,53.249c0.55,0.953,0.221,2.182-0.732,2.732l0,0c-0.953,0.55-2.182,0.221-2.732-0.732l-8-13.856
		C33.718,40.44,34.047,39.21,35,38.66l0,0c0.953-0.55,2.182-0.221,2.732,0.732L45.732,53.249z"/>
</g>
<g>
	<path opacity="0.5" d="M18.608,34.268c0.953-0.55,2.182-0.221,2.732,0.732l0,0c0.55,0.953,0.221,2.182-0.732,2.732l-13.856,8
		C5.799,46.282,4.569,45.953,4.019,45l0,0c-0.55-0.953-0.221-2.182,0.732-2.732L18.608,34.268z"/>
</g>
<g>
	<path opacity="0.2" d="M53.249,14.268c0.953-0.55,2.182-0.221,2.732,0.732l0,0c0.55,0.953,0.221,2.182-0.732,2.732l-13.856,8
		C40.44,26.282,39.21,25.953,38.66,25l0,0c-0.55-0.953-0.221-2.182,0.732-2.732L53.249,14.268z"/>
</g>
<g>
	<path opacity="0.6" d="M20.608,22.268c0.953,0.55,1.282,1.779,0.732,2.732l0,0c-0.55,0.953-1.779,1.282-2.732,0.732l-13.856-8
		C3.799,17.182,3.469,15.953,4.019,15l0,0c0.55-0.953,1.779-1.282,2.732-0.732L20.608,22.268z"/>
</g>
<g>
	<path opacity="0.3" d="M55.249,42.268c0.953,0.55,1.282,1.779,0.732,2.732l0,0c-0.55,0.953-1.779,1.282-2.732,0.732l-13.856-8
		C38.44,37.182,38.11,35.953,38.66,35l0,0c0.55-0.953,1.779-1.282,2.732-0.732L55.249,42.268z"/>
</g>
<g>
	<path opacity="0.45" d="M22.268,39.392c0.55-0.953,1.779-1.282,2.732-0.732l0,0c0.953,0.55,1.282,1.779,0.732,2.732l-8,13.856
		c-0.55,0.953-1.779,1.282-2.732,0.732l0,0c-0.953-0.55-1.282-1.779-0.732-2.732L22.268,39.392z"/>
</g>
<g>
	<path opacity="0.15" d="M42.268,4.751c0.55-0.953,1.779-1.282,2.732-0.732l0,0c0.953,0.55,1.282,1.779,0.732,2.732l-8,13.856
		C37.182,21.56,35.953,21.89,35,21.34l0,0c-0.953-0.55-1.282-1.779-0.732-2.732L42.268,4.751z"/>
</g>
</svg>
