<?xml version="1.0" encoding="utf-8"?>
<!-- Generator: Adobe Illustrator 17.0.0, SVG Export Plug-In . SVG Version: 6.00 Build 0)  -->
<!DOCTYPE svg PUBLIC "-//W3C//DTD SVG 1.1//EN" "http://www.w3.org/Graphics/SVG/1.1/DTD/svg11.dtd">
<svg version="1.1" id="Layer_1" xmlns="http://www.w3.org/2000/svg" xmlns:xlink="http://www.w3.org/1999/xlink" x="0px" y="0px"
	 width="26px" height="26px" viewBox="0 0 26 26" enable-background="new 0 0 26 26" xml:space="preserve">
<path opacity="0.03" fill="#4C565F" d="M24,8c0-2.209-1.791-4-4-4H6C3.791,4,2,5.791,2,8v14c0,2.209,1.791,4,4,4h14
	c2.209,0,4-1.791,4-4V8z"/>
<path fill="#D5DADB" d="M24,6c0-2.209-1.791-4-4-4H6C3.791,2,2,3.791,2,6v14c0,2.209,1.791,4,4,4h14c2.209,0,4-1.791,4-4V6z"/>
<path fill="#FFFFFF" d="M22,20c0,1.1-0.9,2-2,2H6c-1.1,0-2-0.9-2-2V6c0-1.1,0.9-2,2-2h14c1.1,0,2,0.9,2,2V20z"/>
<g>
	<path fill="#74CA00" d="M-127,52c0,22,18,40,40,40s40-18,40-40s-18-40-40-40S-127,30-127,52z"/>
</g>
<path fill="#46AFB7" d="M18.94,15.304l-2.88-4.608c-0.583-0.933-1.537-0.933-2.12,0l-0.607,0.971l-1.439-2.878
	c-0.492-0.984-1.297-0.984-1.789,0l-3.211,6.422C6.402,16.195,6.9,17,8,17h4h2h4C19.1,17,19.523,16.237,18.94,15.304z"/>
<g>
	<path fill="#5D5D5D" d="M-14.894,15.211C-14.402,16.195-14.9,17-16,17h-6c-1.1,0-1.598-0.805-1.106-1.789l3.211-6.422
		c0.492-0.984,1.297-0.984,1.789,0L-14.894,15.211z"/>
</g>
<g>
	<path fill="#5D5D5D" d="M-11.06,15.304C-10.477,16.237-10.9,17-12,17h-6c-1.1,0-1.523-0.763-0.94-1.696l2.88-4.608
		c0.583-0.933,1.537-0.933,2.12,0L-11.06,15.304z"/>
</g>
</svg>
