<?xml version="1.0" encoding="utf-8"?>
<!-- Generator: Adobe Illustrator 17.0.0, SVG Export Plug-In . SVG Version: 6.00 Build 0)  -->
<!DOCTYPE svg PUBLIC "-//W3C//DTD SVG 1.1//EN" "http://www.w3.org/Graphics/SVG/1.1/DTD/svg11.dtd">
<svg version="1.1" id="Layer_1" xmlns="http://www.w3.org/2000/svg" xmlns:xlink="http://www.w3.org/1999/xlink" x="0px" y="0px"
	 width="199.363px" height="131.285px" viewBox="0 0 199.363 131.285" enable-background="new 0 0 199.363 131.285"
	 xml:space="preserve">
<path fill="white" d="M77.263,79.566c-1.805,1.212-3.392,2.406-5.099,3.394c-2.414,1.397-4.917,2.772-7.831,2.489
	c-1.349-0.131-2.636-0.804-3.977-1.123c-2.027-0.483-2.646-2.162-3.393-3.764c-0.232-0.498-0.508-0.977-0.782-1.5
	c-1.806,1.16-3.598,2.172-5.234,3.394c-2.357,1.761-4.556,3.733-6.911,5.497c-1.229,0.92-1.634,2.174-2.053,3.51
	c-1.779,5.682-3.447,11.406-5.433,17.015c-1.256,3.545-2.777,7.04-4.589,10.333c-2.063,3.751-4.659,7.227-7.849,10.114
	c-1.871,1.693-4.243,2.79-6.894,2.2c-1.155-0.257-2.238-0.977-3.269-1.623c-4.549-2.852-5.918-9.636-3.43-14.175
	c3.406-6.214,7.894-11.605,12.293-17.079c3.67-4.566,7.969-8.509,12.363-12.354c0.15-0.132,0.297-0.268,0.443-0.404
	c0.935-0.87,3.091-6.335,2.939-7.767c-0.781,0.632-1.463,1.179-2.139,1.733c-1.834,1.503-3.716,2.952-5.487,4.526
	c-2.896,2.576-6.231,4.379-9.761,5.896c-1.144,0.492-2.142,1.355-3.308,1.756c-1.217,0.419-2.592,0.364-3.83,0.739
	c-1.369,0.416-2.688,0.353-3.996-0.018c-2.391-0.678-4.64-1.749-6.511-3.368c-1.94-1.679-2.998-3.877-3.345-6.508
	c-0.459-3.474,0.017-6.843,0.74-10.189c0.85-3.934,1.79-7.855,2.859-11.735c1.585-5.758,3.49-11.406,6.456-16.637
	c1.991-3.512,3.797-7.138,5.96-10.539c1.977-3.109,4.292-6.007,6.516-8.955c1.546-2.049,3.126-4.079,4.802-6.021
	c4.34-5.028,9.075-9.657,14.407-13.636c1.668-1.245,3.372-2.62,5.285-3.311c2.39-0.863,5.025-1.521,7.532-1.451
	c2.523,0.07,4.545,1.729,6.22,3.829c2.593,3.252,1.723,6.66,0.983,10.129c-1.163,5.457-3.792,10.325-6.262,15.242
	c-1.119,2.227-2.594,4.273-3.753,6.483c-2.735,5.217-6.629,9.589-10.294,14.108c-1.631,2.011-3.746,3.683-5.838,5.244
	c-1.111,0.829-2.61,1.176-4.106,0.463c-0.745-0.355-1.674-0.361-2.367-0.779c-1.705-1.029-1.968-2.006-1.285-3.896
	c0.49-1.355,0.938-2.729,1.493-4.057c1.419-3.397,2.642-6.906,4.395-10.126c2.497-4.587,5.379-8.966,8.139-13.407
	c0.432-0.694,1.11-1.23,1.633-1.874c0.702-0.864,1.688-0.587,2.431-0.385c0.974,0.265,1.882,0.883,2.726,1.48
	c0.602,0.425,0.287,2.274-0.302,3.112c-1.548,2.202-3.122,4.394-4.533,6.683c-1.605,2.604-3.065,5.299-4.544,7.978
	c-0.335,0.608-0.492,1.314-0.487,2.134c0.877-1.023,1.866-1.972,2.612-3.084c2.605-3.882,5.323-7.709,7.619-11.771
	c1.96-3.468,3.517-7.182,5.025-10.879c0.935-2.292,1.538-4.734,2.108-7.152c0.267-1.133,0.144-2.369,0.097-3.555
	c-0.008-0.2-0.6-0.599-0.798-0.533c-1.676,0.559-3.469,0.965-4.95,1.87c-4.57,2.794-8.345,6.601-12.077,10.371
	c-3.227,3.259-6.074,6.898-9.038,10.412c-1.865,2.21-3.669,4.474-5.437,6.763c-0.8,1.035-1.501,2.158-2.148,3.298
	c-1.978,3.484-3.821,7.048-5.878,10.484c-3.139,5.244-5.024,10.977-6.744,16.771c-1.064,3.586-1.867,7.25-2.783,10.881
	c-0.287,1.138-0.781,2.277-0.791,3.419c-0.017,2.021,0.182,4.057,0.461,6.062c0.114,0.819,0.943,1.035,1.781,1.101
	c3.33,0.261,6.309-0.807,9.279-2.154c6.544-2.968,11.81-7.651,17.182-12.265c4.158-3.571,7.385-7.868,10.581-12.219
	c0.863-1.176,1.5-2.548,2.069-3.902c0.832-1.978,3.357-2.349,4.604-0.631c0.347,0.478,0.847,0.857,1.143,1.36
	c0.753,1.277,0.713,2.445,0.057,3.918c-2.026,4.55-3.774,9.225-5.614,13.857c-0.106,0.267-0.076,0.588-0.144,1.192
	c0.622-0.379,1.026-0.583,1.384-0.849c1.945-1.45,3.901-2.886,5.797-4.398c0.419-0.334,0.81-0.931,0.874-1.449
	c0.687-5.533,2.158-10.879,4.054-16.089c1.095-3.012,2.619-5.87,3.994-8.777c1.649-3.487,3.229-7.013,5.047-10.411
	c2.749-5.137,5.502-10.289,8.598-15.217c1.776-2.828,4.121-5.336,6.445-7.763c0.817-0.853,2.297-1.243,3.542-1.467
	c1.342-0.241,2.763-0.057,4.149-0.024c1.805,0.042,5.046,3.586,5.299,5.338c0.611,4.228-0.159,8.265-1.242,12.275
	c-2.09,7.737-5.706,14.796-10.068,21.454c-2.389,3.646-5.174,7.034-7.805,10.519c-3.314,4.391-7.047,8.393-11.247,11.95
	c-0.937,0.794-2.001,1.451-2.861,2.316c-0.494,0.497-0.861,1.255-0.987,1.949c-0.168,0.929-0.098,1.914-0.037,2.869
	c0.078,1.234,0.363,1.44,1.518,1.022c3.087-1.119,6.073-2.504,8.117-5.174c2.803-3.662,5.483-7.423,8.109-11.216
	c1.31-1.892,2.4-3.939,3.56-5.932c0.648-1.114,1.95-1.693,3.332-0.973c1.291,0.673,2.389,1.748,3.495,2.734
	c0.632,0.563,0.665,1.358,0.201,2.087c-0.961,1.51-1.888,3.046-2.94,4.491c-2.453,3.37-4.16,6.958-3.934,11.272
	c0.05,0.967-0.348,1.949-0.402,2.932c-0.064,1.161,0.337,1.359,1.452,1.028c1.991-0.591,4.123-1.07,5.402-2.808
	c1.663-2.261,3.066-4.715,4.546-7.108c0.92-1.487,1.783-3.01,2.66-4.523c0.618-1.066,1.289-2.109,1.81-3.221
	c1.753-3.746,3.561-7.473,5.133-11.296c1.202-2.924,2.079-5.981,3.098-8.98c0.811-2.386,1.619-4.774,2.434-7.18
	c-1.431-0.147-2.768-0.411-4.089-0.351c-0.476,0.021-1.184,0.749-1.326,1.278c-0.463,1.721-1.759,2.606-3.141,3.344
	c-0.476,0.254-1.317,0.067-1.9-0.158c-3.213-1.241-4.361-3.991-3.103-7.223c0.097-0.25,0.009-0.597,0.149-0.802
	c0.396-0.584,0.757-1.377,1.329-1.618c1.302-0.548,2.608-0.897,4.186-0.684c2.37,0.32,4.823,0.02,7.241-0.019
	c0.16-0.003,0.319-0.028,0.479-0.03c2.646-0.027,2.574-0.057,3.613-2.534c0.946-2.256,2.073-4.435,3.114-6.651
	c0.809-1.721,1.568-3.467,2.434-5.159c0.41-0.802,0.945-1.57,1.551-2.238c1.538-1.696,3.506-1.472,5.153,0.429
	c0.718,0.828,1.577,1.534,2.586,2.499c-1.279,4.486-2.599,9.12-3.952,13.866c2.668,0.132,5.208,0.284,7.75,0.344
	c0.269,0.006,0.688-0.482,0.805-0.82c1.088-3.157,2.089-6.345,3.191-9.498c0.677-1.937,1.438-3.838,3.473-4.857
	c1.067-0.534,3.371-0.433,4.275,0.313c0.827,0.683,1.709,1.302,2.507,2.015c1.284,1.147,1.116,2.665,0.751,4.083
	c-0.618,2.404-1.392,4.768-2.129,7.14c-0.161,0.517-0.442,0.996-0.704,1.573c0.366,0.041,0.634,0.076,0.903,0.1
	c2.863,0.252,5.723,0.536,8.59,0.729c0.809,0.055,1.638-0.138,2.453-0.252c2.611-0.366,4.143,1.156,5.432,3.094
	c0.26,0.39,0.617,0.813,0.646,1.24c0.072,1.068-0.332,1.463-1.6,1.73c-3.73,0.786-7.387,0.005-11.07-0.041
	c-2.292-0.028-4.584-0.232-6.872-0.404c-0.738-0.056-1.074,0.313-1.354,0.893c-1.94,4.021-3.966,8.002-5.801,12.07
	c-0.84,1.861-1.256,3.909-1.957,5.839c-1.841,5.067-3.308,10.243-4.187,15.553c-0.421,2.544-0.386,5.171-0.455,7.763
	c-0.031,1.175,1.71,2.047,2.95,1.426c1.594-0.798,3.112-1.755,4.623-2.706c0.207-0.13,0.335-0.665,0.249-0.931
	c-0.369-1.145-0.837-2.257-1.254-3.387c-0.066-0.18-0.074-0.389-0.074-0.585c0.011-4.065,0.405-8.096,1.992-11.864
	c1.814-4.308,4.339-8.236,8.07-11.103c1.51-1.16,3.623-1.402,5.685-1.092c3.768,0.568,6.326,2.638,7.748,6.089
	c0.376,0.912,0.342,1.923-0.341,2.916c-0.516,0.75-0.621,1.796-0.858,2.722c-1.592,6.228-4.899,11.545-8.803,16.536
	c-0.582,0.744-1.394,1.305-2.038,2.007c-0.201,0.218-0.202,0.62-0.295,0.938c0.297,0.021,0.612,0.117,0.888,0.051
	c3.091-0.75,5.828-2.164,8.267-4.229c2.405-2.036,4.935-3.924,7.363-5.934c1.191-0.986,1.126-1.657-0.042-2.717
	c-0.843-0.766-1.072-1.662-1.099-2.854c-0.096-4.256,2.061-7.705,3.899-11.216c1.334-2.547,3.578-3.968,6.718-4.011
	c2.252-0.031,3.681,1.068,5.118,2.439c0.231,0.22,0.443,0.462,0.685,0.668c1.472,1.259,1.646,1.885,0.891,3.629
	c-0.807,1.865-1.657,3.712-2.478,5.571c-0.193,0.437-0.391,0.882-0.504,1.344c-0.266,1.093,0.075,1.422,1.208,1.464
	c1.268,0.047,2.612-0.022,3.777,0.38c1.357,0.469,2.396,1.496,3.45,2.604c2.527,2.658,0.666,5.042-0.009,7.513
	c-0.387,1.416-1.016,2.763-1.468,4.164c-0.119,0.369,0.018,0.82,0.037,1.234c0.403-0.086,0.857-0.083,1.2-0.276
	c0.969-0.546,1.91-1.146,2.83-1.773c2.228-1.517,4.676-2.487,7.367-2.222c1.781,0.175,3.679,0.536,4.694,2.399
	c0.326,0.598,0.329,1.075-0.339,1.518c-2.219,1.475-4.319,3.151-6.628,4.463c-1.719,0.977-3.578,1.876-5.737,1.524
	c-1.125-0.183-2.284-0.152-3.424-0.257c-2.943-0.271-5.14-1.935-7.247-3.826c-1.282-1.151-0.818-2.581-0.571-3.795
	c0.488-2.408,1.297-4.753,2.027-7.108c0.362-1.168,0.212-1.26-0.97-1.493c-2.205-0.433-3.409,0.412-4.582,2.309
	c-1.488,2.407-3.513,4.458-5.915,6.106c-2.257,1.548-4.373,3.3-6.57,4.937c-0.222,0.166-0.57,0.164-0.636,0.181
	c-0.71,0.53-1.24,1.105-1.897,1.379c-1.352,0.564-2.77,0.97-4.164,1.433c-0.186,0.062-0.391,0.111-0.585,0.101
	c-2.023-0.099-4.057,0.069-6.005-0.834c-1.278-0.593-2.702-0.882-4.075-1.252c-0.194-0.052-0.475,0.204-0.711,0.327
	c-1.984,1.034-3.823,2.193-6.288,2.178c-2.255-0.013-4.119-1.025-6.176-1.499c-3.337-0.769-5.197-3.261-6.52-6.145
	c-0.457-0.997-0.305-2.272-0.444-3.418c-0.054-0.444-0.142-0.884-0.26-1.599c-1.151,1.595-2.037,3-3.099,4.255
	c-1.971,2.329-3.989,4.624-6.092,6.834c-1.853,1.947-4.391,2.078-6.858,2.093c-0.731,0.005-1.449-0.626-2.203-0.87
	c-2.315-0.751-3.396-2.675-4.486-4.604c-0.13-0.231-0.296-0.442-0.483-0.718c-0.231,0.279-0.435,0.466-0.566,0.695
	c-1.663,2.92-4.46,4.232-7.396,5.475c-1.231,0.521-2.228,0.844-3.647,0.66c-2.385-0.309-5.374-0.947-7.219-2.319
	c-0.334-0.248-0.474-0.773-0.672-1.185C78.218,81.63,77.742,80.592,77.263,79.566z M105.08,79.349
	c0.194,0.105,0.388,0.211,0.583,0.316c1.543-1.616,3.135-3.189,4.61-4.865c0.965-1.096,1.795-2.318,2.622-3.527
	c1.213-1.773,2.42-3.554,3.538-5.387c2.299-3.768,4.563-7.558,6.791-11.369c1.217-2.083,2.3-4.245,3.496-6.34
	c1.59-2.784,2.172-5.908,3.091-8.919c0.339-1.111,0.637-2.234,1-3.516c-0.822-0.041-1.373-0.09-1.925-0.091
	c-1.906-0.005-3.812,0.054-5.716,0.001c-2.717-0.076-1.956-0.277-3.118,1.949c-0.129,0.247-0.216,0.515-0.336,0.766
	c-1.856,3.897-3.664,7.818-5.594,11.677c-0.882,1.764-2.159,3.337-2.981,5.123c-1.03,2.237-1.999,4.548-2.599,6.927
	c-1.208,4.784-2.165,9.632-3.183,14.463C105.164,77.467,105.167,78.417,105.08,79.349z M65.171,60.897
	c0.122,0.057,0.243,0.113,0.365,0.17c1.106-1.17,2.293-2.274,3.301-3.523c1.963-2.43,3.905-4.884,5.709-7.433
	c1.983-2.801,3.951-5.632,5.657-8.604c3.614-6.297,6.931-12.748,8.461-19.937c0.399-1.877,1.154-3.726,0.614-6.079
	C88.438,16.31,87.67,16.9,87.1,17.642c-1.417,1.842-2.841,3.693-4.083,5.653c-1.568,2.475-3.077,5.003-4.401,7.614
	c-2.692,5.31-5.224,10.702-7.862,16.039c-0.941,1.903-2.145,3.687-2.969,5.635c-1.023,2.415-1.785,4.941-2.633,7.429
	C65.062,60.275,65.16,60.601,65.171,60.897z M31.994,99.705c-0.155-0.071-0.31-0.143-0.465-0.214
	c-1.279,1.455-2.626,2.856-3.824,4.375c-3.512,4.452-7.274,8.711-10.208,13.607c-1.078,1.799-1.875,3.658-2.297,5.691
	c-0.134,0.647-0.12,1.52,0.77,1.316c1.056-0.242,2.237-0.673,2.982-1.409c2.856-2.824,5.262-6.019,7.348-9.471
	c1.844-3.051,3.095-6.343,4.305-9.662C31.113,102.543,31.534,101.116,31.994,99.705z M151.465,54.401
	c-3.669,0.572-9.769,12.269-8.468,16.246C146.923,65.738,149.444,60.26,151.465,54.401z"/>
</svg>
