<?xml version="1.0" encoding="utf-8"?>
<!-- Generator: Adobe Illustrator 17.0.0, SVG Export Plug-In . SVG Version: 6.00 Build 0)  -->
<!DOCTYPE svg PUBLIC "-//W3C//DTD SVG 1.1//EN" "http://www.w3.org/Graphics/SVG/1.1/DTD/svg11.dtd">
<svg version="1.1" id="Layer_1" xmlns="http://www.w3.org/2000/svg" xmlns:xlink="http://www.w3.org/1999/xlink" x="0px" y="0px"
	 width="26px" height="26px" viewBox="0 0 26 26" enable-background="new 0 0 26 26" xml:space="preserve">
<path opacity="0.03" fill="#4C565F" d="M24,8c0-2.209-1.791-4-4-4H6C3.791,4,2,5.791,2,8v14c0,2.209,1.791,4,4,4h14
	c2.209,0,4-1.791,4-4V8z"/>
<path fill="#D5DADB" d="M24,6c0-2.209-1.791-4-4-4H6C3.791,2,2,3.791,2,6v14c0,2.209,1.791,4,4,4h14c2.209,0,4-1.791,4-4V6z"/>
<path fill="#FFFFFF" d="M22,20c0,1.1-0.9,2-2,2H6c-1.1,0-2-0.9-2-2V6c0-1.1,0.9-2,2-2h14c1.1,0,2,0.9,2,2V20z"/>
</svg>
