<?xml version="1.0" encoding="utf-8"?>
<!-- Generator: Adobe Illustrator 17.0.0, SVG Export Plug-In . SVG Version: 6.00 Build 0)  -->
<!DOCTYPE svg PUBLIC "-//W3C//DTD SVG 1.1//EN" "http://www.w3.org/Graphics/SVG/1.1/DTD/svg11.dtd">
<svg version="1.1" id="Layer_1" xmlns="http://www.w3.org/2000/svg" xmlns:xlink="http://www.w3.org/1999/xlink" x="0px" y="0px"
	 width="26px" height="26px" viewBox="0 0 26 26" enable-background="new 0 0 26 26" xml:space="preserve">
<path opacity="0.03" fill="#4C565F" d="M24,8c0-2.209-1.791-4-4-4H6C3.791,4,2,5.791,2,8v14c0,2.209,1.791,4,4,4h14
	c2.209,0,4-1.791,4-4V8z"/>
<path fill="#43D2F8" d="M24,6c0-2.209-1.791-4-4-4H6C3.791,2,2,3.791,2,6v14c0,2.209,1.791,4,4,4h14c2.209,0,4-1.791,4-4V6z"/>
<path fill="#141133" d="M22,20c0,1.1-0.9,2-2,2H6c-1.1,0-2-0.9-2-2V6c0-1.1,0.9-2,2-2h14c1.1,0,2,0.9,2,2V20z"/>
<path fill="#43D2F8" d="M11.753,13.494c-0.443,0.37-1.078,0.556-1.902,0.556H8.273v2.727H6.699V9.193h3.256
	c0.751,0,1.35,0.195,1.795,0.586c0.447,0.391,0.67,0.996,0.67,1.816C12.42,12.491,12.198,13.124,11.753,13.494z M10.544,10.762
	c-0.201-0.168-0.482-0.252-0.844-0.252H8.273v2.233h1.428c0.362,0,0.643-0.091,0.844-0.273c0.201-0.182,0.301-0.47,0.301-0.864
	C10.845,11.212,10.745,10.93,10.544,10.762z"/>
<path fill="#43D2F8" d="M14.833,14.436c0.049,0.346,0.146,0.605,0.289,0.777c0.262,0.312,0.713,0.468,1.35,0.468
	c0.382,0,0.692-0.041,0.93-0.123c0.452-0.158,0.677-0.451,0.677-0.88c0-0.25-0.111-0.444-0.332-0.581
	c-0.221-0.134-0.573-0.252-1.053-0.355l-0.821-0.18c-0.808-0.178-1.362-0.372-1.663-0.581c-0.511-0.35-0.767-0.897-0.767-1.641
	c0-0.679,0.25-1.243,0.75-1.693c0.5-0.449,1.234-0.674,2.203-0.674c0.809,0,1.499,0.212,2.07,0.635
	c0.571,0.424,0.871,1.038,0.899,1.844h-1.523c-0.028-0.456-0.232-0.78-0.612-0.972c-0.253-0.127-0.568-0.19-0.944-0.19
	c-0.418,0-0.752,0.082-1.002,0.247c-0.25,0.165-0.375,0.394-0.375,0.689c0,0.271,0.123,0.473,0.37,0.607
	c0.158,0.089,0.494,0.194,1.008,0.314l1.331,0.314c0.583,0.137,1.02,0.321,1.311,0.55c0.452,0.357,0.678,0.873,0.678,1.549
	c0,0.693-0.268,1.268-0.803,1.726c-0.536,0.458-1.292,0.687-2.27,0.687c-0.999,0-1.783-0.226-2.355-0.677
	c-0.573-0.451-0.858-1.071-0.858-1.86H14.833z"/>
</svg>
